<svg width="22" height="22" viewBox="0 0 22 22" fill="none" xmlns="http://www.w3.org/2000/svg">
<path d="M11.1309 11.7881C12.6496 11.7881 13.8809 10.5569 13.8809 9.03809C13.8809 7.5193 12.6496 6.28809 11.1309 6.28809C9.61208 6.28809 8.38086 7.5193 8.38086 9.03809C8.38086 10.5569 9.61208 11.7881 11.1309 11.7881Z" stroke="#265FEB" stroke-linecap="round" stroke-linejoin="round"/>
<path d="M17.9402 8.9375C17.9402 15.125 11.0652 19.9375 11.0652 19.9375C11.0652 19.9375 4.19019 15.125 4.19019 8.9375C4.19019 7.11414 4.91451 5.36545 6.20383 4.07614C7.49314 2.78683 9.24182 2.0625 11.0652 2.0625C12.8885 2.0625 14.6372 2.78683 15.9265 4.07614C17.2159 5.36545 17.9402 7.11414 17.9402 8.9375V8.9375Z" stroke="#265FEB" stroke-linecap="round" stroke-linejoin="round"/>
</svg>
