<svg width="126" height="39" viewBox="0 0 126 39" fill="none" xmlns="http://www.w3.org/2000/svg">
<path d="M76.0404 18.9031V21.0428H74.6992V22.4461H76.0404V27.2141C76.0404 28.8422 76.7769 29.4934 78.6299 29.4934C78.9555 29.4934 79.2656 29.4547 79.5369 29.4082V28.0204C79.3044 28.0437 79.1571 28.0592 78.9012 28.0592C78.0717 28.0592 77.7073 27.6715 77.7073 26.7877V22.4461H79.5369V21.0428H77.7073V18.9031H76.0404Z" fill="white"/>
<path d="M84.2572 29.6097C86.7226 29.6097 88.2344 27.9584 88.2344 25.2216C88.2344 22.5004 86.7148 20.8413 84.2572 20.8413C81.7918 20.8413 80.2722 22.5004 80.2722 25.2216C80.2722 27.9584 81.784 29.6097 84.2572 29.6097ZM84.2572 28.1289C82.8074 28.1289 81.9934 27.0668 81.9934 25.2216C81.9934 23.392 82.8074 22.3221 84.2572 22.3221C85.6992 22.3221 86.521 23.392 86.521 25.2216C86.521 27.059 85.6992 28.1289 84.2572 28.1289Z" fill="white"/>
<path d="M89.5279 29.4469H91.1947V24.4618C91.1947 23.2757 92.0863 22.4771 93.35 22.4771C93.6446 22.4771 94.1408 22.5314 94.2804 22.5779V20.9343C94.1021 20.8878 93.7842 20.8645 93.5361 20.8645C92.4352 20.8645 91.4971 21.4692 91.2568 22.2988H91.1327V21.0041H89.5279V29.4469Z" fill="white"/>
<path d="M98.4192 22.26C99.6519 22.26 100.458 23.1206 100.497 24.4463H96.2328C96.3259 23.1284 97.1864 22.26 98.4192 22.26ZM100.489 27.1676C100.179 27.8266 99.489 28.191 98.4812 28.191C97.1477 28.191 96.2871 27.2529 96.2328 25.7721V25.679H102.195V25.0976C102.195 22.4461 100.776 20.8413 98.4269 20.8413C96.0468 20.8413 94.535 22.5546 94.535 25.2526C94.535 27.9506 96.0158 29.6097 98.4347 29.6097C100.365 29.6097 101.714 28.6794 102.094 27.1676H100.489Z" fill="white"/>
<path d="M65.1094 26.3291C65.238 28.4023 66.9656 29.7282 69.537 29.7282C72.2852 29.7282 74.0048 28.338 74.0048 26.1202C74.0048 24.3765 73.0244 23.4122 70.6459 22.8577L69.3683 22.5443C67.8576 22.1908 67.2469 21.7167 67.2469 20.889C67.2469 19.8444 68.1951 19.1614 69.6174 19.1614C70.9673 19.1614 71.8995 19.8283 72.0682 20.897H73.82C73.7155 18.9444 71.9959 17.5703 69.6415 17.5703C67.1103 17.5703 65.4228 18.9444 65.4228 21.0095C65.4228 22.7131 66.379 23.7256 68.4763 24.2157L69.9709 24.5774C71.5057 24.939 72.1807 25.4693 72.1807 26.3532C72.1807 27.3818 71.12 28.1291 69.6736 28.1291C68.1227 28.1291 67.046 27.43 66.8933 26.3291H65.1094Z" fill="white"/>
<path d="M47.8424 20.8645C46.695 20.8645 45.7026 21.4382 45.1909 22.3996H45.0669V21.0041H43.4621V32.2535H45.1289V28.1677H45.2607C45.7026 29.0593 46.6562 29.5865 47.8579 29.5865C49.9899 29.5865 51.3467 27.9041 51.3467 25.2216C51.3467 22.5391 49.9899 20.8645 47.8424 20.8645ZM47.3695 28.0902C45.974 28.0902 45.0979 26.9893 45.0979 25.2294C45.0979 23.4617 45.974 22.3608 47.3772 22.3608C48.7883 22.3608 49.6333 23.4385 49.6333 25.2216C49.6333 27.0125 48.7883 28.0902 47.3695 28.0902Z" fill="white"/>
<path d="M57.1793 20.8645C56.0319 20.8645 55.0395 21.4382 54.5278 22.3996H54.4038V21.0041H52.799V32.2535H54.4658V28.1677H54.5976C55.0395 29.0593 55.9931 29.5865 57.1948 29.5865C59.3269 29.5865 60.6836 27.9041 60.6836 25.2216C60.6836 22.5391 59.3269 20.8645 57.1793 20.8645ZM56.7064 28.0902C55.3109 28.0902 54.4348 26.9893 54.4348 25.2294C54.4348 23.4617 55.3109 22.3608 56.7141 22.3608C58.1252 22.3608 58.9702 23.4385 58.9702 25.2216C58.9702 27.0125 58.1252 28.0902 56.7064 28.0902Z" fill="white"/>
<path d="M40.4714 29.4469H42.3839L38.1973 17.8516H36.2608L32.0742 29.4469H33.9224L34.9911 26.3693H39.4107L40.4714 29.4469ZM37.1366 19.9569H37.2732L38.9527 24.8586H35.4492L37.1366 19.9569Z" fill="white"/>
<path d="M33.1934 9.10628V14.7H35.213C36.8798 14.7 37.8451 13.6727 37.8451 11.8857C37.8451 10.1258 36.8721 9.10628 35.213 9.10628H33.1934ZM34.0617 9.89707H35.1161C36.2751 9.89707 36.9612 10.6336 36.9612 11.8973C36.9612 13.1804 36.2867 13.9092 35.1161 13.9092H34.0617V9.89707Z" fill="white"/>
<path d="M40.8012 14.7814C42.0339 14.7814 42.7898 13.9557 42.7898 12.5873C42.7898 11.2267 42.0301 10.3971 40.8012 10.3971C39.5685 10.3971 38.8087 11.2267 38.8087 12.5873C38.8087 13.9557 39.5646 14.7814 40.8012 14.7814ZM40.8012 14.041C40.0763 14.041 39.6693 13.5099 39.6693 12.5873C39.6693 11.6725 40.0763 11.1375 40.8012 11.1375C41.5222 11.1375 41.9331 11.6725 41.9331 12.5873C41.9331 13.506 41.5222 14.041 40.8012 14.041Z" fill="white"/>
<path d="M49.227 10.4785H48.3936L47.6416 13.6998H47.5757L46.7073 10.4785H45.9088L45.0405 13.6998H44.9785L44.2226 10.4785H43.3775L44.5404 14.7H45.3971L46.2654 11.5911H46.3313L47.2035 14.7H48.068L49.227 10.4785Z" fill="white"/>
<path d="M50.1868 14.7H51.0202V12.2307C51.0202 11.5717 51.4118 11.1608 52.0281 11.1608C52.6445 11.1608 52.9391 11.498 52.9391 12.1764V14.7H53.7725V11.9671C53.7725 10.9631 53.2531 10.3971 52.3111 10.3971C51.6754 10.3971 51.2567 10.6801 51.0513 11.1492H50.9892V10.4785H50.1868V14.7Z" fill="white"/>
<path d="M55.0851 14.7H55.9185V8.83105H55.0851V14.7Z" fill="white"/>
<path d="M59.053 14.7814C60.2857 14.7814 61.0416 13.9557 61.0416 12.5873C61.0416 11.2267 60.2818 10.3971 59.053 10.3971C57.8203 10.3971 57.0605 11.2267 57.0605 12.5873C57.0605 13.9557 57.8164 14.7814 59.053 14.7814ZM59.053 14.041C58.3281 14.041 57.9211 13.5099 57.9211 12.5873C57.9211 11.6725 58.3281 11.1375 59.053 11.1375C59.774 11.1375 60.1849 11.6725 60.1849 12.5873C60.1849 13.506 59.774 14.041 59.053 14.041Z" fill="white"/>
<path d="M63.5248 14.0681C63.0713 14.0681 62.7418 13.8471 62.7418 13.4673C62.7418 13.0951 63.0054 12.8974 63.5868 12.8587L64.618 12.7928V13.1455C64.618 13.6688 64.1528 14.0681 63.5248 14.0681ZM63.3116 14.7697C63.8659 14.7697 64.3272 14.5294 64.5792 14.1069H64.6451V14.7H65.4475V11.8159C65.4475 10.9243 64.8505 10.3971 63.7923 10.3971C62.8348 10.3971 62.1526 10.8623 62.0673 11.5872H62.8736C62.9666 11.2887 63.2883 11.1181 63.7535 11.1181C64.3234 11.1181 64.618 11.3701 64.618 11.8159V12.1803L63.4744 12.2462C62.4704 12.3082 61.9045 12.7462 61.9045 13.506C61.9045 14.2774 62.4976 14.7697 63.3116 14.7697Z" fill="white"/>
<path d="M68.2758 14.7697C68.8572 14.7697 69.3495 14.4945 69.6015 14.0332H69.6674V14.7H70.4659V8.83105H69.6325V11.1492H69.5705C69.3418 10.684 68.8533 10.4088 68.2758 10.4088C67.2097 10.4088 66.5236 11.2538 66.5236 12.5873C66.5236 13.9247 67.202 14.7697 68.2758 14.7697ZM68.5122 11.1569C69.21 11.1569 69.648 11.7112 69.648 12.5912C69.648 13.475 69.2138 14.0216 68.5122 14.0216C67.8067 14.0216 67.3842 13.4828 67.3842 12.5873C67.3842 11.6996 67.8106 11.1569 68.5122 11.1569Z" fill="white"/>
<path d="M75.8704 14.7814C77.1031 14.7814 77.859 13.9557 77.859 12.5873C77.859 11.2267 77.0993 10.3971 75.8704 10.3971C74.6377 10.3971 73.878 11.2267 73.878 12.5873C73.878 13.9557 74.6339 14.7814 75.8704 14.7814ZM75.8704 14.041C75.1455 14.041 74.7385 13.5099 74.7385 12.5873C74.7385 11.6725 75.1455 11.1375 75.8704 11.1375C76.5915 11.1375 77.0024 11.6725 77.0024 12.5873C77.0024 13.506 76.5915 14.041 75.8704 14.041Z" fill="white"/>
<path d="M78.9623 14.7H79.7957V12.2307C79.7957 11.5717 80.1872 11.1608 80.8036 11.1608C81.4199 11.1608 81.7145 11.498 81.7145 12.1764V14.7H82.548V11.9671C82.548 10.9631 82.0285 10.3971 81.0866 10.3971C80.4508 10.3971 80.0322 10.6801 79.8267 11.1492H79.7647V10.4785H78.9623V14.7Z" fill="white"/>
<path d="M86.3864 9.42802V10.4979H85.7158V11.1995H86.3864V13.5835C86.3864 14.3976 86.7547 14.7232 87.6811 14.7232C87.8439 14.7232 87.999 14.7038 88.1347 14.6806V13.9867C88.0184 13.9983 87.9447 14.0061 87.8168 14.0061C87.402 14.0061 87.2198 13.8123 87.2198 13.3703V11.1995H88.1347V10.4979H87.2198V9.42802H86.3864Z" fill="white"/>
<path d="M89.2534 14.7H90.0868V12.2346C90.0868 11.5949 90.4667 11.1647 91.149 11.1647C91.7382 11.1647 92.0522 11.5058 92.0522 12.1803V14.7H92.8856V11.9748C92.8856 10.9708 92.3313 10.401 91.4319 10.401C90.7962 10.401 90.3504 10.684 90.145 11.1569H90.0791V8.83105H89.2534V14.7Z" fill="white"/>
<path d="M95.8922 11.1065C96.5085 11.1065 96.9117 11.5368 96.931 12.1997H94.799C94.8455 11.5407 95.2758 11.1065 95.8922 11.1065ZM96.9272 13.5603C96.7721 13.8898 96.4271 14.072 95.9232 14.072C95.2564 14.072 94.8261 13.6029 94.799 12.8625V12.816H97.78V12.5253C97.78 11.1995 97.0706 10.3971 95.896 10.3971C94.706 10.3971 93.9501 11.2538 93.9501 12.6028C93.9501 13.9518 94.6905 14.7814 95.8999 14.7814C96.8651 14.7814 97.5396 14.3162 97.7296 13.5603H96.9272Z" fill="white"/>
<path d="M23.0295 19.9302C23.0498 18.3602 23.8929 16.8746 25.2305 16.0522C24.3867 14.8471 22.9733 14.083 21.5028 14.037C19.9344 13.8723 18.4139 14.9755 17.6147 14.9755C16.8 14.9755 15.5695 14.0533 14.2444 14.0806C12.5172 14.1364 10.9071 15.1184 10.0668 16.6284C8.26042 19.7558 9.60778 24.352 11.3381 26.8799C12.2038 28.1178 13.2156 29.5005 14.5395 29.4515C15.835 29.3977 16.3188 28.6254 17.8826 28.6254C19.4319 28.6254 19.8858 29.4515 21.2366 29.4203C22.6267 29.3977 23.5025 28.1769 24.3379 26.9273C24.9599 26.0453 25.4385 25.0705 25.7561 24.039C24.1224 23.348 23.0314 21.704 23.0295 19.9302Z" fill="white"/>
<path d="M20.4782 12.3745C21.2361 11.4646 21.6096 10.295 21.5191 9.11426C20.3611 9.23588 19.2915 9.78933 18.5233 10.6643C17.7721 11.5192 17.3812 12.6682 17.4551 13.8038C18.6135 13.8157 19.7523 13.2773 20.4782 12.3745Z" fill="white"/>
<rect x="0.466995" y="1.43672" width="124.982" height="36.4256" rx="3.73348" stroke="white" stroke-width="0.93399"/>
</svg>
