<svg width="163" height="54" viewBox="0 0 163 54" fill="none" xmlns="http://www.w3.org/2000/svg">
<rect x="0.849609" width="162" height="54" rx="7" fill="white"/>
<path d="M110.91 25.9215V29.0143H108.971V31.0426H110.91V37.9344C110.91 40.2876 111.974 41.2289 114.652 41.2289C115.123 41.2289 115.571 41.1729 115.964 41.1057V39.0998C115.627 39.1334 115.414 39.1558 115.045 39.1558C113.846 39.1558 113.319 38.5955 113.319 37.318V31.0426H115.964V29.0143H113.319V25.9215H110.91Z" fill="black"/>
<path d="M122.786 41.397C126.35 41.397 128.535 39.0102 128.535 35.0544C128.535 31.1211 126.339 28.723 122.786 28.723C119.223 28.723 117.026 31.1211 117.026 35.0544C117.026 39.0102 119.212 41.397 122.786 41.397ZM122.786 39.2567C120.691 39.2567 119.514 37.7215 119.514 35.0544C119.514 32.4098 120.691 30.8633 122.786 30.8633C124.871 30.8633 126.058 32.4098 126.058 35.0544C126.058 37.7102 124.871 39.2567 122.786 39.2567Z" fill="black"/>
<path d="M130.405 41.1617H132.814V33.9562C132.814 32.2417 134.103 31.0875 135.929 31.0875C136.355 31.0875 137.072 31.1659 137.274 31.2331V28.8575C137.016 28.7902 136.557 28.7566 136.198 28.7566C134.607 28.7566 133.251 29.6307 132.904 30.8297H132.724V28.9583H130.405V41.1617Z" fill="black"/>
<path d="M143.256 30.7737C145.038 30.7737 146.203 32.0176 146.259 33.9338H140.096C140.23 32.0288 141.474 30.7737 143.256 30.7737ZM146.248 37.8671C145.8 38.8196 144.803 39.3463 143.346 39.3463C141.418 39.3463 140.174 37.9904 140.096 35.85V35.7156H148.713V34.8751C148.713 31.0426 146.663 28.723 143.267 28.723C139.827 28.723 137.642 31.1995 137.642 35.0992C137.642 38.9989 139.782 41.397 143.279 41.397C146.069 41.397 148.019 40.0523 148.568 37.8671H146.248Z" fill="black"/>
<path d="M95.1098 36.6552C95.2956 39.6518 97.7928 41.5682 101.51 41.5682C105.482 41.5682 107.967 39.5589 107.967 36.3532C107.967 33.8328 106.55 32.439 103.112 31.6376L101.266 31.1846C99.082 30.6736 98.1993 29.9883 98.1993 28.792C98.1993 27.2821 99.5699 26.2948 101.626 26.2948C103.577 26.2948 104.924 27.2589 105.168 28.8036H107.7C107.549 25.9812 105.064 23.9951 101.661 23.9951C98.0019 23.9951 95.5628 25.9812 95.5628 28.9662C95.5628 31.4286 96.9449 32.892 99.9764 33.6005L102.137 34.1232C104.355 34.6458 105.331 35.4124 105.331 36.69C105.331 38.1767 103.798 39.2569 101.707 39.2569C99.4653 39.2569 97.9089 38.2464 97.6883 36.6552H95.1098Z" fill="black"/>
<path d="M70.1519 28.7566C68.4934 28.7566 67.059 29.5859 66.3194 30.9754H66.1401V28.9583H63.8205V45.2183H66.2298V39.3127H66.4203C67.059 40.6014 68.4374 41.3634 70.1743 41.3634C73.256 41.3634 75.217 38.9317 75.217 35.0544C75.217 31.1771 73.256 28.7566 70.1519 28.7566ZM69.4683 39.2007C67.4512 39.2007 66.1849 37.6094 66.1849 35.0656C66.1849 32.5106 67.4512 30.9194 69.4795 30.9194C71.519 30.9194 72.7405 32.477 72.7405 35.0544C72.7405 37.643 71.519 39.2007 69.4683 39.2007Z" fill="black"/>
<path d="M83.6476 28.7566C81.9891 28.7566 80.5547 29.5859 79.8151 30.9754H79.6358V28.9583H77.3161V45.2183H79.7254V39.3127H79.9159C80.5547 40.6014 81.933 41.3634 83.67 41.3634C86.7516 41.3634 88.7127 38.9317 88.7127 35.0544C88.7127 31.1771 86.7516 28.7566 83.6476 28.7566ZM82.964 39.2007C80.9469 39.2007 79.6806 37.6094 79.6806 35.0656C79.6806 32.5106 80.9469 30.9194 82.9752 30.9194C85.0147 30.9194 86.2362 32.477 86.2362 35.0544C86.2362 37.643 85.0147 39.2007 82.964 39.2007Z" fill="black"/>
<path d="M59.4978 41.1617H62.2621L56.2108 24.4016H53.4116L47.3604 41.1617H50.0317L51.5765 36.7133H57.9646L59.4978 41.1617ZM54.6776 27.4447H54.8751L57.3026 34.5297H52.2385L54.6776 27.4447Z" fill="black"/>
<path d="M48.9785 11.7591V19.8443H51.8977C54.307 19.8443 55.7021 18.3595 55.7021 15.7765C55.7021 13.2327 54.2958 11.7591 51.8977 11.7591H48.9785ZM50.2336 12.9022H51.7576C53.4329 12.9022 54.4247 13.9667 54.4247 15.7933C54.4247 17.6479 53.4497 18.7013 51.7576 18.7013H50.2336V12.9022Z" fill="black"/>
<path d="M59.975 19.962C61.7568 19.962 62.8494 18.7685 62.8494 16.7907C62.8494 14.824 61.7512 13.625 59.975 13.625C58.1933 13.625 57.0951 14.824 57.0951 16.7907C57.0951 18.7685 58.1877 19.962 59.975 19.962ZM59.975 18.8918C58.9273 18.8918 58.3389 18.1242 58.3389 16.7907C58.3389 15.4683 58.9273 14.6951 59.975 14.6951C61.0172 14.6951 61.6111 15.4683 61.6111 16.7907C61.6111 18.1186 61.0172 18.8918 59.975 18.8918Z" fill="black"/>
<path d="M72.1538 13.7426H70.9491L69.8621 18.3987H69.7669L68.5118 13.7426H67.3576L66.1025 18.3987H66.0128L64.9202 13.7426H63.6988L65.3797 19.8443H66.618L67.873 15.3507H67.9683L69.229 19.8443H70.4785L72.1538 13.7426Z" fill="black"/>
<path d="M73.5411 19.8443H74.7457V16.2752C74.7457 15.3227 75.3116 14.7287 76.2025 14.7287C77.0934 14.7287 77.5192 15.2162 77.5192 16.1967V19.8443H78.7239V15.8942C78.7239 14.443 77.9731 13.625 76.6115 13.625C75.6926 13.625 75.0875 14.034 74.7905 14.7119H74.7009V13.7426H73.5411V19.8443Z" fill="black"/>
<path d="M80.6211 19.8443H81.8257V11.3613H80.6211V19.8443Z" fill="black"/>
<path d="M86.3563 19.962C88.1381 19.962 89.2307 18.7685 89.2307 16.7907C89.2307 14.824 88.1325 13.625 86.3563 13.625C84.5746 13.625 83.4764 14.824 83.4764 16.7907C83.4764 18.7685 84.5689 19.962 86.3563 19.962ZM86.3563 18.8918C85.3085 18.8918 84.7202 18.1242 84.7202 16.7907C84.7202 15.4683 85.3085 14.6951 86.3563 14.6951C87.3985 14.6951 87.9924 15.4683 87.9924 16.7907C87.9924 18.1186 87.3985 18.8918 86.3563 18.8918Z" fill="black"/>
<path d="M92.82 18.931C92.1644 18.931 91.6882 18.6116 91.6882 18.0625C91.6882 17.5247 92.0692 17.2389 92.9096 17.1829L94.4 17.0876V17.5975C94.4 18.3539 93.7276 18.931 92.82 18.931ZM92.5118 19.9452C93.313 19.9452 93.9798 19.5978 94.344 18.987H94.4392V19.8443H95.5991V15.6757C95.5991 14.387 94.7362 13.625 93.2066 13.625C91.8226 13.625 90.8365 14.2973 90.7132 15.3451H91.8787C92.0131 14.9136 92.4782 14.6671 93.1505 14.6671C93.9742 14.6671 94.4 15.0313 94.4 15.6757V16.2023L92.7471 16.2976C91.2959 16.3872 90.4779 17.0204 90.4779 18.1186C90.4779 19.2336 91.3352 19.9452 92.5118 19.9452Z" fill="black"/>
<path d="M99.687 19.9452C100.527 19.9452 101.239 19.5474 101.603 18.8806H101.699V19.8443H102.853V11.3613H101.648V14.7119H101.558C101.228 14.0396 100.522 13.6418 99.687 13.6418C98.1462 13.6418 97.1545 14.8632 97.1545 16.7907C97.1545 18.7237 98.135 19.9452 99.687 19.9452ZM100.029 14.7231C101.037 14.7231 101.671 15.5244 101.671 16.7963C101.671 18.0738 101.043 18.8638 100.029 18.8638C99.0091 18.8638 98.3983 18.085 98.3983 16.7907C98.3983 15.5076 99.0147 14.7231 100.029 14.7231Z" fill="black"/>
<path d="M110.664 19.962C112.446 19.962 113.539 18.7685 113.539 16.7907C113.539 14.824 112.441 13.625 110.664 13.625C108.883 13.625 107.785 14.824 107.785 16.7907C107.785 18.7685 108.877 19.962 110.664 19.962ZM110.664 18.8918C109.617 18.8918 109.028 18.1242 109.028 16.7907C109.028 15.4683 109.617 14.6951 110.664 14.6951C111.707 14.6951 112.301 15.4683 112.301 16.7907C112.301 18.1186 111.707 18.8918 110.664 18.8918Z" fill="black"/>
<path d="M115.133 19.8443H116.338V16.2752C116.338 15.3227 116.904 14.7287 117.795 14.7287C118.686 14.7287 119.112 15.2162 119.112 16.1967V19.8443H120.316V15.8942C120.316 14.443 119.565 13.625 118.204 13.625C117.285 13.625 116.68 14.034 116.383 14.7119H116.293V13.7426H115.133V19.8443Z" fill="black"/>
<path d="M125.864 12.2242V13.7706H124.895V14.7848H125.864V18.2306C125.864 19.4073 126.397 19.8779 127.736 19.8779C127.971 19.8779 128.195 19.8499 128.391 19.8163V18.8134C128.223 18.8302 128.117 18.8414 127.932 18.8414C127.332 18.8414 127.069 18.5612 127.069 17.9225V14.7848H128.391V13.7706H127.069V12.2242H125.864Z" fill="black"/>
<path d="M130.008 19.8443H131.213V16.2808C131.213 15.3563 131.762 14.7344 132.748 14.7344C133.6 14.7344 134.054 15.2274 134.054 16.2023V19.8443H135.258V15.9054C135.258 14.4542 134.457 13.6306 133.157 13.6306C132.238 13.6306 131.594 14.0396 131.297 14.7231H131.202V11.3613H130.008V19.8443Z" fill="black"/>
<path d="M139.604 14.6503C140.495 14.6503 141.078 15.2722 141.106 16.2304H138.024C138.091 15.2778 138.713 14.6503 139.604 14.6503ZM141.1 18.197C140.876 18.6733 140.377 18.9366 139.649 18.9366C138.685 18.9366 138.063 18.2587 138.024 17.1885V17.1212H142.333V16.701C142.333 14.7848 141.307 13.625 139.61 13.625C137.89 13.625 136.797 14.8632 136.797 16.8131C136.797 18.7629 137.867 19.962 139.615 19.962C141.01 19.962 141.985 19.2896 142.26 18.197H141.1Z" fill="black"/>
<path d="M34.2879 27.4069C34.3171 25.1376 35.5359 22.9903 37.4693 21.8016C36.2496 20.0597 34.2066 18.9553 32.0812 18.8888C29.8142 18.6508 27.6165 20.2453 26.4613 20.2453C25.2837 20.2453 23.5051 18.9124 21.5898 18.9518C19.0933 19.0325 16.7659 20.4518 15.5514 22.6344C12.9405 27.1548 14.8879 33.7982 17.389 37.4521C18.6403 39.2414 20.1027 41.24 22.0163 41.1691C23.8888 41.0914 24.5882 39.975 26.8485 39.975C29.0878 39.975 29.7439 41.1691 31.6963 41.124C33.7056 41.0914 34.9716 39.3269 36.179 37.5207C37.0781 36.2458 37.7699 34.8368 38.2289 33.3458C35.8676 32.3471 34.2907 29.9708 34.2879 27.4069Z" fill="black"/>
<path d="M30.6001 16.4858C31.6957 15.1706 32.2355 13.4802 32.1048 11.7734C30.431 11.9492 28.8849 12.7492 27.7745 14.0139C26.6887 15.2496 26.1237 16.9103 26.2305 18.5518C27.9049 18.569 29.5509 17.7908 30.6001 16.4858Z" fill="black"/>
</svg>
