<svg width="26" height="26" viewBox="0 0 26 26" fill="none" xmlns="http://www.w3.org/2000/svg">
<path d="M8.125 13.8125H17.875" stroke="#265FEB" stroke-width="2" stroke-linecap="round" stroke-linejoin="round"/>
<path d="M4.875 9.75V7.3125C4.875 6.45055 5.21741 5.6239 5.8269 5.0144C6.4364 4.40491 7.26305 4.0625 8.125 4.0625H17.875C18.737 4.0625 19.5636 4.40491 20.1731 5.0144C20.7826 5.6239 21.125 6.45055 21.125 7.3125V9.75" stroke="#265FEB" stroke-width="2" stroke-linecap="round" stroke-linejoin="round"/>
<path d="M8.125 17.0625V13C8.125 12.3572 7.93439 11.7289 7.57728 11.1944C7.22016 10.6599 6.71258 10.2434 6.11872 9.99739C5.52486 9.75141 4.8714 9.68705 4.24096 9.81245C3.61052 9.93785 3.03143 10.2474 2.5769 10.7019C2.12238 11.1564 1.81285 11.7355 1.68745 12.366C1.56205 12.9964 1.62641 13.6499 1.87239 14.2437C2.11838 14.8376 2.53494 15.3452 3.0694 15.7023C3.60386 16.0594 4.23221 16.25 4.875 16.25V20.3125C4.875 20.528 4.9606 20.7347 5.11298 20.887C5.26535 21.0394 5.47201 21.125 5.6875 21.125H20.3125C20.528 21.125 20.7347 21.0394 20.887 20.887C21.0394 20.7347 21.125 20.528 21.125 20.3125V16.25C21.7678 16.25 22.3961 16.0594 22.9306 15.7023C23.4651 15.3452 23.8816 14.8376 24.1276 14.2437C24.3736 13.6499 24.438 12.9964 24.3126 12.366C24.1872 11.7355 23.8776 11.1564 23.4231 10.7019C22.9686 10.2474 22.3895 9.93785 21.759 9.81245C21.1286 9.68705 20.4751 9.75141 19.8813 9.99739C19.2874 10.2434 18.7798 10.6599 18.4227 11.1944C18.0656 11.7289 17.875 12.3572 17.875 13V17.0625" stroke="#265FEB" stroke-width="2" stroke-linecap="round" stroke-linejoin="round"/>
</svg>
