<svg width="26" height="26" viewBox="0 0 26 26" fill="none" xmlns="http://www.w3.org/2000/svg">
<path d="M9.75 15.4375H16.25" stroke="white" stroke-width="1.6" stroke-linecap="round" stroke-linejoin="round"/>
<path d="M9.75 12.1875H16.25" stroke="white" stroke-width="1.6" stroke-linecap="round" stroke-linejoin="round"/>
<path d="M16.25 4.0625H20.3125C20.528 4.0625 20.7347 4.1481 20.887 4.30048C21.0394 4.45285 21.125 4.65951 21.125 4.875V21.9375C21.125 22.153 21.0394 22.3597 20.887 22.512C20.7347 22.6644 20.528 22.75 20.3125 22.75H5.6875C5.47201 22.75 5.26535 22.6644 5.11298 22.512C4.9606 22.3597 4.875 22.153 4.875 21.9375V4.875C4.875 4.65951 4.9606 4.45285 5.11298 4.30048C5.26535 4.1481 5.47201 4.0625 5.6875 4.0625H9.75" stroke="white" stroke-width="1.6" stroke-linecap="round" stroke-linejoin="round"/>
<path d="M8.9375 7.3125V6.5C8.9375 5.42256 9.36551 4.38925 10.1274 3.62738C10.8892 2.86551 11.9226 2.4375 13 2.4375C14.0774 2.4375 15.1108 2.86551 15.8726 3.62738C16.6345 4.38925 17.0625 5.42256 17.0625 6.5V7.3125H8.9375Z" stroke="white" stroke-width="1.6" stroke-linecap="round" stroke-linejoin="round"/>
</svg>
