<svg width="91" height="91" viewBox="0 0 91 91" fill="none" xmlns="http://www.w3.org/2000/svg">
<g clip-path="url(#clip0_342_4168)">
<path fill-rule="evenodd" clip-rule="evenodd" d="M56.8075 30.54C65.4167 31.8445 73.8354 34.8243 79.2016 40.9112C81.1722 43.1473 82.4036 45.8419 83.6906 48.5823C83.8037 48.8233 83.6998 49.1113 83.4589 49.2237C83.2187 49.3367 82.9303 49.2334 82.8179 48.9931C81.5701 46.3357 80.3881 43.7161 78.4785 41.5502C73.1937 35.5546 64.857 32.6914 56.3706 31.4489C56.3386 31.517 56.3073 31.5857 56.276 31.6544C55.5879 33.1651 53.7635 34.5885 51.4668 35.7235C48.1334 37.3721 43.8169 38.4462 40.8312 38.4684C39.4538 38.4793 38.3441 38.2538 37.6886 37.8057C37.1421 37.4327 36.8583 36.9173 36.8928 36.2523C36.9225 35.7038 37.1417 35.1772 37.5282 34.6828C38.0444 34.0232 38.8711 33.4123 39.9027 32.8728C43.7196 30.8763 50.382 29.8054 53.177 30.0856C54.0527 30.1732 54.9298 30.2764 55.8084 30.3967C56.0149 29.9705 56.211 29.5625 56.3614 29.1569C56.5822 28.5614 56.7025 27.976 56.5677 27.3436C56.3195 26.1764 55.5431 25.2812 54.5473 24.5785C52.9538 23.4526 50.8034 22.8177 49.1333 22.4382C39.7403 20.3036 30.8985 23.6789 23.4079 28.3755C15.832 33.1248 9.6315 39.2341 5.62154 42.5027C5.41489 42.6704 5.11037 42.6398 4.94287 42.4333C4.77449 42.2278 4.80571 41.9234 5.01165 41.7551C9.04378 38.4688 15.2807 32.3326 22.8951 27.5584C30.5948 22.7315 39.6925 19.3037 49.348 21.4977C51.1243 21.9024 53.4075 22.5932 55.1041 23.7905C56.3027 24.6382 57.2116 25.7365 57.5106 27.1418C57.685 27.9611 57.5505 28.7229 57.2658 29.4915C57.1381 29.8361 56.9787 30.184 56.8075 30.54ZM55.3726 31.3102C54.7347 32.6452 53.0732 33.8541 51.0395 34.8592C47.8364 36.4434 43.6926 37.4827 40.8235 37.5049C39.8622 37.5117 39.0523 37.4091 38.4929 37.1541C38.0882 36.9703 37.8344 36.7048 37.856 36.3034C37.8806 35.8417 38.1295 35.4152 38.5192 35.0118C38.9678 34.5464 39.6004 34.1185 40.3506 33.7268C44.0111 31.8122 50.4006 30.7759 53.0802 31.0448C53.8427 31.1217 54.6079 31.21 55.3726 31.3102Z" fill="#265FEB"/>
<path fill-rule="evenodd" clip-rule="evenodd" d="M83.2396 50.2044C83.3679 50.022 83.4811 49.7428 83.5918 49.4418C83.8432 48.7612 84.0376 47.9649 84.1433 47.5906C84.2165 47.3349 84.4832 47.1855 84.7395 47.2583C84.9959 47.3311 85.1438 47.5982 85.0714 47.8545C84.9415 48.3114 84.683 49.3667 84.3547 50.1326C84.186 50.5261 83.9892 50.8491 83.7944 51.0315C83.6023 51.2096 83.4042 51.264 83.2083 51.2504C83.0023 51.2359 82.7697 51.1223 82.5377 50.8881C82.2831 50.6305 81.9875 50.1918 81.6049 49.7705C81.2841 49.4169 80.8962 49.0698 80.3898 48.916C80.1346 48.8391 79.99 48.5699 80.0678 48.3151C80.1447 48.0612 80.4141 47.916 80.6683 47.9939C81.619 48.2811 82.2829 49.0448 82.781 49.6759C82.9293 49.8641 83.1268 50.0832 83.2396 50.2044Z" fill="#265FEB"/>
</g>
<defs>
<clipPath id="clip0_342_4168">
<rect width="63.6276" height="63.6276" fill="white" transform="matrix(0.725282 0.688452 0.688452 -0.725282 0.785156 46.2031)"/>
</clipPath>
</defs>
</svg>
