<svg width="106" height="102" viewBox="0 0 106 102" fill="none" xmlns="http://www.w3.org/2000/svg">
<path fill-rule="evenodd" clip-rule="evenodd" d="M50.2822 38.2365C49.9568 35.905 48.8062 33.7841 46.5786 32.0971C39.6873 26.8789 32.4699 28.0523 26.0138 32.2752C16.587 38.4415 8.81895 51.1994 6.28688 59.3322C6.16652 59.7172 6.38238 60.1259 6.76633 60.2448C7.15137 60.3652 7.56106 60.1507 7.68144 59.7657C10.1385 51.872 17.6651 39.4812 26.8135 33.496C32.7416 29.6188 39.3684 28.4682 45.6972 33.2619C47.5818 34.6873 48.5468 36.4804 48.827 38.451C47.542 38.6539 46.2797 38.8905 45.0426 39.1611C41.6279 39.909 33.2411 43.4606 28.4883 47.9798C25.0798 51.2225 23.5403 54.9573 26.3499 58.5424C27.912 60.5348 30.269 61.0664 32.9512 60.4718C36.6393 59.6566 40.9859 56.6493 44.4057 52.7631C47.2535 49.528 49.4569 45.693 50.1481 42.0575C50.2984 41.2581 50.3801 40.4683 50.3803 39.6954C68.2551 37.2193 89.7265 41.3196 104.579 50.8667C104.918 51.083 105.369 50.9867 105.587 50.6464C105.806 50.3076 105.707 49.8557 105.369 49.6384C90.2742 39.9367 68.4706 35.7503 50.2822 38.2365ZM48.9125 39.9147C47.7053 40.1081 46.5186 40.3322 45.3549 40.5874C42.0829 41.3051 34.0487 44.7076 29.4951 49.0378C26.7003 51.6947 25.1962 54.7041 27.4987 57.6425C28.7089 59.185 30.5587 59.5057 32.636 59.0477C34.9206 58.5416 37.4623 57.1111 39.8496 55.1507C43.4739 52.1745 46.7378 47.9728 48.1679 43.8123C48.6217 42.4945 48.8878 41.1804 48.9125 39.9147Z" fill="#265FEB"/>
<path fill-rule="evenodd" clip-rule="evenodd" d="M77.6127 54.6148C85.3831 50.6833 96.0665 49.7466 104.752 50.8346C105.152 50.8847 105.516 50.6005 105.566 50.201C105.617 49.8016 105.334 49.4357 104.934 49.3856C95.9774 48.2625 84.9651 49.2597 76.9542 53.3122C76.5955 53.4934 76.4512 53.9328 76.6335 54.293C76.8146 54.6517 77.254 54.796 77.6127 54.6148Z" fill="#265FEB"/>
<path fill-rule="evenodd" clip-rule="evenodd" d="M105.003 49.2185C98.3646 46.3026 92.2132 38.8413 89.4836 32.1013C89.3324 31.7273 88.9064 31.5455 88.5335 31.6982C88.1595 31.8494 87.9792 32.2742 88.1304 32.6482C90.9902 39.7091 97.4613 47.4997 104.416 50.5547C104.784 50.7173 105.216 50.5485 105.379 50.1802C105.54 49.8105 105.372 49.38 105.003 49.2185Z" fill="#265FEB"/>
</svg>
