<svg width="305" height="449" viewBox="0 0 305 449" fill="none" xmlns="http://www.w3.org/2000/svg">
<circle opacity="0.2" cx="288.5" cy="18.5" r="5.5" fill="white"/>
<circle opacity="0.08" cx="3" cy="3" r="3" fill="white"/>
<g opacity="0.3">
<path d="M277.675 422.95L285 444.112C285.312 445.025 286.612 445 286.9 444.075L289.85 434.5C289.894 434.343 289.979 434.201 290.095 434.087C290.211 433.973 290.355 433.891 290.512 433.85L300.075 430.9C301 430.612 301.025 429.312 300.112 429L278.95 421.675C278.772 421.612 278.58 421.601 278.396 421.643C278.213 421.685 278.044 421.778 277.911 421.911C277.778 422.044 277.685 422.213 277.643 422.396C277.601 422.58 277.612 422.772 277.675 422.95V422.95Z" stroke="white" stroke-linecap="round" stroke-linejoin="round"/>
</g>
</svg>
