<svg width="359" height="233" viewBox="0 0 359 233" fill="none" xmlns="http://www.w3.org/2000/svg">
<path opacity="0.2" d="M72.9952 0.466033C72.9757 0.347516 72.8638 0.267228 72.7453 0.286705C72.6268 0.306181 72.5465 0.418047 72.566 0.536563L72.9952 0.466033ZM-133.174 189.178C-132.666 187.918 -132.153 186.676 -131.635 185.451L-132.036 185.281C-132.554 186.508 -133.068 187.753 -133.577 189.015L-133.174 189.178ZM-128.475 178.31C-127.374 175.933 -126.253 173.627 -125.115 171.391L-125.503 171.193C-126.643 173.434 -127.766 175.745 -128.87 178.128L-128.475 178.31ZM-121.416 164.471C-120.13 162.183 -118.824 159.976 -117.499 157.847L-117.868 157.617C-119.197 159.752 -120.506 161.965 -121.795 164.258L-121.416 164.471ZM-113.208 151.311C-111.702 149.138 -110.175 147.057 -108.627 145.063L-108.971 144.796C-110.523 146.796 -112.055 148.884 -113.566 151.063L-113.208 151.311ZM-103.713 139.092C-101.96 137.086 -100.184 135.182 -98.3891 133.374L-98.6978 133.067C-100.5 134.882 -102.281 136.793 -104.041 138.806L-103.713 139.092ZM-92.7838 128.091C-90.7972 126.341 -88.7898 124.698 -86.7642 123.155L-87.0278 122.809C-89.0615 124.358 -91.077 126.008 -93.0713 127.764L-92.7838 128.091ZM-80.4081 118.669C-78.2134 117.238 -76.0012 115.912 -73.7748 114.683L-73.985 114.302C-76.2206 115.536 -78.4419 116.868 -80.6457 118.305L-80.4081 118.669ZM-66.864 111.191C-64.4801 110.093 -62.084 109.094 -59.6796 108.185L-59.8334 107.778C-62.2471 108.691 -64.6526 109.693 -67.046 110.796L-66.864 111.191ZM-52.3262 105.68C-49.8327 104.92 -47.3345 104.245 -44.8357 103.644L-44.9374 103.221C-47.4441 103.824 -49.9507 104.501 -52.453 105.264L-52.3262 105.68ZM-37.2432 102.037C-34.6785 101.563 -32.1179 101.157 -29.5659 100.807L-29.625 100.376C-32.183 100.727 -34.7503 101.134 -37.3222 101.609L-37.2432 102.037ZM-21.8346 99.9014C-19.2332 99.6453 -16.646 99.436 -14.0779 99.2609L-14.1075 98.8269C-16.6792 99.0023 -19.2709 99.212 -21.8772 99.4685L-21.8346 99.9014ZM-6.30881 98.8195C-3.68991 98.6964 -1.09734 98.5965 1.46352 98.5057L1.44811 98.071C-1.11358 98.1619 -3.70799 98.2619 -6.32922 98.385L-6.30881 98.8195ZM9.23447 98.24C11.8682 98.1481 14.4602 98.0503 17.0031 97.93L16.9826 97.4956C14.4423 97.6157 11.8524 97.7134 9.2193 97.8053L9.23447 98.24ZM24.7733 97.463C27.4278 97.2612 30.0164 97.0121 32.5302 96.694L32.4756 96.2625C29.9705 96.5795 27.3893 96.828 24.7403 97.0293L24.7733 97.463ZM40.2301 95.431C42.8578 94.8848 45.3807 94.2233 47.7863 93.4159L47.6479 93.0036C45.2612 93.8046 42.7552 94.4619 40.1416 95.0052L40.2301 95.431ZM54.972 90.349C57.2815 89.1129 59.4394 87.6703 61.4298 85.9833L61.1486 85.6515C59.1834 87.3171 57.0513 88.7427 54.7667 89.9656L54.972 90.349ZM66.7689 80.3036C68.2608 78.311 69.6016 76.0889 70.7801 73.6098L70.3873 73.4231C69.2205 75.8775 67.8944 78.0746 66.4207 80.0429L66.7689 80.3036ZM73.5413 66.3345C74.236 63.9981 74.8234 61.4864 75.2982 58.7857L74.8699 58.7104C74.3976 61.3962 73.8139 63.8916 73.1244 66.2106L73.5413 66.3345ZM76.2989 51.0697C76.5194 48.5703 76.6611 45.9357 76.721 43.1583L76.2861 43.1489C76.2264 45.9175 76.0852 48.5425 75.8657 51.0315L76.2989 51.0697ZM76.6873 35.4979C76.6165 33.0061 76.4888 30.4133 76.3025 27.7155L75.8686 27.7454C76.0545 30.4378 76.1819 33.0247 76.2525 35.5103L76.6873 35.4979ZM75.6298 19.9177C75.3762 17.4418 75.0787 14.8862 74.7361 12.2483L74.3048 12.3043C74.6469 14.9385 74.944 17.4902 75.1971 19.9621L75.6298 19.9177ZM73.6375 4.50758C73.4338 3.17961 73.2197 1.83252 72.9952 0.466033L72.566 0.536563C72.7903 1.90156 73.0041 3.24712 73.2076 4.57352L73.6375 4.50758ZM73.2097 0.430767C73.1708 0.193734 72.9471 0.0331583 72.71 0.0721113C72.473 0.111064 72.3124 0.334795 72.3514 0.571829L73.2097 0.430767ZM-132.972 189.259C-132.465 188 -131.952 186.759 -131.435 185.535L-132.236 185.197C-132.755 186.425 -133.269 187.67 -133.779 188.934L-132.972 189.259ZM-128.278 178.402C-127.177 176.026 -126.058 173.723 -124.922 171.489L-125.697 171.095C-126.839 173.338 -127.962 175.651 -129.067 178.036L-128.278 178.402ZM-121.226 164.578C-119.942 162.293 -118.637 160.088 -117.315 157.962L-118.053 157.502C-119.383 159.64 -120.694 161.855 -121.984 164.152L-121.226 164.578ZM-113.03 151.435C-111.526 149.265 -110 147.187 -108.456 145.196L-109.143 144.663C-110.697 146.666 -112.232 148.757 -113.744 150.939L-113.03 151.435ZM-103.549 139.235C-101.799 137.233 -100.027 135.332 -98.2348 133.527L-98.8521 132.914C-100.657 134.732 -102.442 136.647 -104.204 138.663L-103.549 139.235ZM-92.6401 128.254C-90.6573 126.508 -88.6539 124.868 -86.6324 123.328L-87.1595 122.636C-89.1974 124.188 -91.2168 125.841 -93.215 127.601L-92.6401 128.254ZM-80.2893 118.851C-78.0992 117.423 -75.8915 116.1 -73.6697 114.874L-74.0901 114.112C-76.3303 115.348 -78.5562 116.683 -80.7645 118.123L-80.2893 118.851ZM-66.773 111.389C-64.3939 110.293 -62.0025 109.296 -59.6027 108.388L-59.9104 107.574C-62.3286 108.489 -64.7388 109.494 -67.137 110.599L-66.773 111.389ZM-52.2628 105.888C-49.7737 105.129 -47.2797 104.455 -44.7849 103.856L-44.9882 103.01C-47.4989 103.613 -50.0097 104.292 -52.5164 105.056L-52.2628 105.888ZM-37.2038 102.251C-34.6426 101.778 -32.0853 101.372 -29.5363 101.022L-29.6546 100.161C-32.2156 100.512 -34.7862 100.92 -37.3617 101.395L-37.2038 102.251ZM-21.8133 100.118C-19.2144 99.862 -16.6293 99.6529 -14.0631 99.4778L-14.1223 98.61C-16.6959 98.7855 -19.2897 98.9953 -21.8986 99.2521L-21.8133 100.118ZM-6.29861 99.0367C-3.68088 98.9137 -1.08922 98.8138 1.47123 98.723L1.4404 97.8537C-1.12169 97.9445 -3.71703 98.0446 -6.33943 98.1678L-6.29861 99.0367ZM9.24205 98.4573C11.8761 98.3654 14.4691 98.2676 17.0134 98.1473L16.9723 97.2784C14.4333 97.3984 11.8445 97.4961 9.21172 97.588L9.24205 98.4573ZM24.7897 97.6799C27.447 97.4779 30.0394 97.2284 32.5575 96.9098L32.4483 96.0468C29.9476 96.3632 27.37 96.6113 24.7238 96.8125L24.7897 97.6799ZM40.2744 95.6439C42.909 95.0962 45.4405 94.4326 47.8555 93.6221L47.5787 92.7974C45.2015 93.5952 42.7039 94.2504 40.0973 94.7922L40.2744 95.6439ZM55.0746 90.5408C57.3965 89.2979 59.5674 87.8469 61.5705 86.1492L61.008 85.4856C59.0554 87.1405 56.9362 88.5577 54.6641 89.7738L55.0746 90.5408ZM66.943 80.4339C68.444 78.4292 69.7921 76.1946 70.9765 73.7032L70.1909 73.3297C69.03 75.7718 67.7113 77.9564 66.2466 79.9126L66.943 80.4339ZM73.7498 66.3965C74.447 64.0514 75.0363 61.5315 75.5124 58.8234L74.6557 58.6727C74.1848 61.3511 73.6029 63.8383 72.916 66.1486L73.7498 66.3965ZM76.5156 51.0888C76.7365 48.5843 76.8784 45.9448 76.9384 43.163L76.0687 43.1442C76.0091 45.9084 75.8681 48.5286 75.649 51.0124L76.5156 51.0888ZM76.9047 35.4918C76.8338 32.9968 76.706 30.4011 76.5195 27.7005L75.6516 27.7604C75.8374 30.4501 75.9646 33.034 76.0352 35.5165L76.9047 35.4918ZM75.8462 19.8956C75.5924 17.4176 75.2946 14.86 74.9518 12.2203L74.0892 12.3323C74.431 14.9647 74.7278 17.5144 74.9808 19.9842L75.8462 19.8956ZM73.8525 4.4746C73.6486 3.14585 73.4344 1.798 73.2097 0.430767L72.3514 0.571829C72.5756 1.93608 72.7893 3.28088 72.9926 4.6065L73.8525 4.4746Z" fill="white"/>
<g opacity="0.3">
<path d="M333.871 136.39L340.373 145.623L351.544 144.588" stroke="white" stroke-width="0.565232" stroke-linecap="round" stroke-linejoin="round"/>
<path d="M336.17 154.728L340.379 145.613" stroke="white" stroke-width="0.565232" stroke-linecap="round" stroke-linejoin="round"/>
<path d="M342.967 134.542L336.227 135.039C334.7 135.151 332.926 136.379 332.285 137.766L329.663 143.444C329.023 144.831 329.238 146.979 330.143 148.213L334.131 153.676C334.985 154.838 336.864 155.706 338.302 155.602L345.046 155.096C346.573 154.984 348.348 153.755 348.988 152.368L351.61 146.69C352.251 145.303 352.035 143.156 351.13 141.921L347.142 136.458C346.279 135.291 344.41 134.428 342.967 134.542Z" stroke="white" stroke-width="0.565232" stroke-linecap="round" stroke-linejoin="round"/>
</g>
<g opacity="0.3">
<path d="M37.7773 211.257L32.5038 218.746L23.4439 217.906" stroke="white" stroke-width="0.458425" stroke-linecap="round" stroke-linejoin="round"/>
<path d="M35.9137 226.13L32.5 218.737" stroke="white" stroke-width="0.458425" stroke-linecap="round" stroke-linejoin="round"/>
<path d="M30.399 209.759L35.8654 210.162C37.1038 210.252 38.543 211.249 39.0624 212.374L41.1889 216.979C41.7083 218.103 41.5337 219.845 40.7997 220.847L37.5652 225.277C36.8732 226.22 35.349 226.924 34.1828 226.839L28.7126 226.428C27.4742 226.338 26.035 225.341 25.5156 224.216L23.3891 219.611C22.8697 218.487 23.0443 216.745 23.7783 215.743L27.0128 211.313C27.713 210.366 29.229 209.666 30.399 209.759Z" stroke="white" stroke-width="0.458425" stroke-linecap="round" stroke-linejoin="round"/>
</g>
</svg>
