<svg width="179" height="277" viewBox="0 0 179 277" fill="none" xmlns="http://www.w3.org/2000/svg">
<path opacity="0.2" d="M0.57625 26.573C0.456224 26.5687 0.355387 26.6624 0.351037 26.7825C0.346702 26.9025 0.44047 27.0033 0.560496 27.0077L0.57625 26.573ZM144.783 265.994C143.649 265.246 142.532 264.498 141.434 263.748L141.189 264.107C142.289 264.858 143.407 265.608 144.544 266.357L144.783 265.994ZM135.06 259.239C132.947 257.688 130.908 256.134 128.941 254.576L128.671 254.917C130.642 256.478 132.685 258.036 134.803 259.589L135.06 259.239ZM122.89 249.581C120.902 247.868 118.997 246.151 117.171 244.432L116.873 244.748C118.703 246.472 120.613 248.193 122.607 249.91L122.89 249.581ZM111.613 238.933C109.781 237.027 108.043 235.118 106.394 233.207L106.065 233.491C107.719 235.408 109.462 237.323 111.3 239.234L111.613 238.933ZM101.514 227.209C99.8942 225.093 98.3785 222.976 96.9613 220.859L96.5998 221.101C98.0223 223.226 99.5433 225.35 101.169 227.473L101.514 227.209ZM92.8912 214.319C91.5691 212.026 90.3556 209.733 89.2435 207.442L88.8523 207.632C89.9688 209.932 91.1872 212.234 92.5144 214.536L92.8912 214.319ZM86.1035 200.325C85.1347 197.89 84.2726 195.459 83.5084 193.034L83.0936 193.165C83.8609 195.6 84.7266 198.041 85.6994 200.485L86.1035 200.325ZM81.4522 185.569C80.8471 183.015 80.3417 180.469 79.926 177.932L79.4967 178.002C79.9141 180.549 80.4214 183.105 81.029 185.669L81.4522 185.569ZM78.9252 170.228C78.6733 167.634 78.5057 165.051 78.4112 162.483L77.9766 162.499C78.0714 165.076 78.2395 167.667 78.4923 170.27L78.9252 170.228ZM78.3372 154.723C78.3803 152.115 78.4887 149.525 78.65 146.954L78.2159 146.927C78.0542 149.504 77.9456 152.101 77.9023 154.716L78.3372 154.723ZM79.2915 139.196C79.555 136.596 79.8616 134.018 80.1978 131.466L79.7666 131.409C79.4299 133.965 79.1228 136.547 78.8588 139.152L79.2915 139.196ZM81.3017 123.763C81.6991 121.172 82.1139 118.61 82.5314 116.082L82.1023 116.011C81.6846 118.54 81.2695 121.103 80.8718 123.697L81.3017 123.763ZM83.8079 108.412C84.2387 105.812 84.6555 103.252 85.0406 100.736L84.6106 100.67C84.226 103.184 83.8095 105.742 83.3788 108.341L83.8079 108.412ZM86.1196 93.0268C86.4468 90.3848 86.7146 87.798 86.9 85.271L86.4662 85.2392C86.2815 87.7574 86.0145 90.3368 85.6879 92.9733L86.1196 93.0268ZM87.1848 77.4734C87.1691 74.7896 87.0197 72.1856 86.704 69.6679L86.2725 69.722C86.5856 72.2199 86.7343 74.8064 86.7499 77.4759L87.1848 77.4734ZM85.119 62.0175C84.364 59.5092 83.3767 57.1086 82.1167 54.8238L81.7358 55.0338C82.9799 57.2897 83.9557 59.6616 84.7025 62.1429L85.119 62.0175ZM77.6052 48.4669C75.947 46.6103 74.034 44.8565 71.837 43.211L71.5763 43.5591C73.7514 45.1883 75.6428 46.9227 77.2808 48.7566L77.6052 48.4669ZM65.2516 39.0654C63.0987 37.9223 60.7528 36.8497 58.1994 35.8501L58.0408 36.2551C60.5801 37.2492 62.9108 38.315 65.0476 39.4495L65.2516 39.0654ZM50.8337 33.3431C48.4273 32.6326 45.8728 31.9727 43.162 31.3646L43.0669 31.789C45.769 32.3951 48.3141 33.0527 50.7105 33.7602L50.8337 33.3431ZM35.6464 29.8825C33.1897 29.4591 30.6229 29.0714 27.9415 28.7205L27.8851 29.1518C30.561 29.502 33.122 29.8887 35.5725 30.3112L35.6464 29.8825ZM20.1648 27.8376C17.6876 27.5965 15.1236 27.3827 12.4701 27.1968L12.4397 27.6306C15.0895 27.8163 17.6496 28.0298 20.1227 28.2705L20.1648 27.8376ZM4.66499 26.7427C3.32298 26.6797 1.96016 26.6232 0.57625 26.573L0.560496 27.0077C1.9429 27.0578 3.30417 27.1143 4.64461 27.1772L4.66499 26.7427ZM0.584127 26.3557C0.344061 26.347 0.142414 26.5345 0.133715 26.7746C0.125017 27.0146 0.312567 27.2163 0.55262 27.225L0.584127 26.3557ZM144.903 265.812C143.769 265.065 142.654 264.317 141.557 263.568L141.066 264.287C142.167 265.038 143.287 265.789 144.424 266.539L144.903 265.812ZM135.188 259.063C133.077 257.514 131.041 255.962 129.076 254.406L128.536 255.088C130.509 256.65 132.555 258.21 134.674 259.765L135.188 259.063ZM123.032 249.416C121.046 247.705 119.143 245.991 117.321 244.273L116.724 244.907C118.556 246.633 120.469 248.356 122.465 250.075L123.032 249.416ZM111.77 238.782C109.941 236.879 108.205 234.973 106.559 233.065L105.9 233.633C107.557 235.553 109.303 237.47 111.143 239.385L111.77 238.782ZM101.687 227.076C100.07 224.965 98.5567 222.851 97.142 220.738L96.4191 221.222C97.8442 223.351 99.3679 225.479 100.996 227.605L101.687 227.076ZM93.0796 214.211C91.7601 211.922 90.549 209.633 89.4392 207.347L88.6566 207.727C89.7755 210.032 90.9962 212.338 92.326 214.645L93.0796 214.211ZM86.3056 200.244C85.3388 197.815 84.4784 195.389 83.7158 192.969L82.8862 193.23C83.6551 195.67 84.5226 198.116 85.4974 200.566L86.3056 200.244ZM81.6638 185.519C81.0599 182.97 80.5555 180.429 80.1406 177.897L79.2821 178.037C79.7003 180.589 80.2086 183.15 80.8174 185.719L81.6638 185.519ZM79.1417 170.207C78.8902 167.617 78.7229 165.039 78.6285 162.475L77.7592 162.507C77.8542 165.088 78.0226 167.683 78.2758 170.291L79.1417 170.207ZM78.5546 154.726C78.5977 152.122 78.7059 149.535 78.8671 146.967L77.9989 146.913C77.837 149.493 77.7282 152.093 77.6849 154.712L78.5546 154.726ZM79.5079 139.218C79.7712 136.62 80.0774 134.045 80.4134 131.494L79.551 131.381C79.214 133.938 78.9067 136.522 78.6424 139.13L79.5079 139.218ZM81.5167 123.796C81.9139 121.206 82.3285 118.646 82.746 116.118L81.8877 115.976C81.47 118.505 81.0547 121.069 80.6568 123.664L81.5167 123.796ZM84.0224 108.448C84.4533 105.848 84.8703 103.286 85.2556 100.769L84.3957 100.637C84.0112 103.15 83.5949 105.707 83.1642 108.306L84.0224 108.448ZM86.3354 93.0535C86.663 90.4087 86.9312 87.8183 87.1169 85.2869L86.2493 85.2232C86.0649 87.7372 85.7983 90.3128 85.4721 92.9466L86.3354 93.0535ZM87.4023 77.4721C87.3865 74.7811 87.2367 72.1684 86.9198 69.6408L86.0567 69.749C86.3686 72.2371 86.5168 74.8149 86.5324 77.4772L87.4023 77.4721ZM85.3272 61.9549C84.5682 59.433 83.5751 57.018 82.3071 54.7188L81.5454 55.1389C82.7815 57.3802 83.7515 59.7379 84.4942 62.2056L85.3272 61.9549ZM77.7674 48.322C76.0991 46.4541 74.1753 44.6907 71.9674 43.0369L71.4459 43.7331C73.6101 45.3541 75.4908 47.0789 77.1186 48.9015L77.7674 48.322ZM65.3536 38.8733C63.1927 37.726 60.8391 36.65 58.2787 35.6476L57.9615 36.4576C60.4938 37.449 62.8168 38.5113 64.9456 39.6416L65.3536 38.8733ZM50.8953 33.1345C48.4839 32.4226 45.9247 31.7614 43.2096 31.1524L43.0193 32.0012C45.7171 32.6064 48.2576 33.2628 50.649 33.9688L50.8953 33.1345ZM35.6833 29.6682C33.2236 29.2442 30.6539 28.8562 27.9698 28.5049L27.8569 29.3674C30.5301 29.7173 33.0882 30.1036 35.5356 30.5255L35.6833 29.6682ZM20.1859 27.6212C17.7066 27.3799 15.1406 27.1659 12.4853 26.9798L12.4245 27.8476C15.0724 28.0331 17.6306 28.2464 20.1016 28.487L20.1859 27.6212ZM4.67519 26.5255C3.33237 26.4625 1.96879 26.4059 0.584127 26.3557L0.55262 27.225C1.93427 27.2751 3.29478 27.3316 4.63442 27.3944L4.67519 26.5255Z" fill="white"/>
<g opacity="0.3">
<path d="M66.8691 105.863L59.6062 116.176L47.1286 115.02" stroke="white" stroke-width="0.63136" stroke-linecap="round" stroke-linejoin="round"/>
<path d="M64.3011 126.346L59.5996 116.165" stroke="white" stroke-width="0.63136" stroke-linecap="round" stroke-linejoin="round"/>
<path d="M56.7076 103.799L64.2362 104.354C65.9417 104.479 67.9238 105.851 68.6392 107.4L71.5679 113.743C72.2832 115.292 72.0428 117.691 71.0319 119.07L66.5772 125.172C65.6241 126.47 63.525 127.439 61.9188 127.323L54.3851 126.757C52.6796 126.632 50.6974 125.26 49.9821 123.711L47.0534 117.368C46.338 115.819 46.5785 113.42 47.5894 112.041L52.0441 105.939C53.0084 104.636 55.0962 103.672 56.7076 103.799Z" stroke="white" stroke-width="0.63136" stroke-linecap="round" stroke-linejoin="round"/>
</g>
</svg>
