<svg width="32" height="32" viewBox="0 0 32 32" fill="none" xmlns="http://www.w3.org/2000/svg">
<path d="M16 28C22.6274 28 28 22.6274 28 16C28 9.37258 22.6274 4 16 4C9.37258 4 4 9.37258 4 16C4 22.6274 9.37258 28 16 28Z" stroke="white" stroke-width="1.6" stroke-linecap="round" stroke-linejoin="round"/>
<path d="M6.19922 22.9252L7.66172 22.0377C7.80676 21.9482 7.92653 21.8232 8.00966 21.6744C8.09279 21.5257 8.13653 21.3581 8.13672 21.1877L8.16172 16.6752C8.16371 16.4881 8.22018 16.3057 8.32422 16.1502L10.7992 12.2627C10.8735 12.1478 10.9703 12.0492 11.0837 11.9728C11.1971 11.8964 11.3249 11.8437 11.4592 11.818C11.5935 11.7923 11.7317 11.7941 11.8653 11.8233C11.999 11.8524 12.1253 11.9084 12.2367 11.9877L14.6867 13.7627C14.8981 13.9101 15.1554 13.9766 15.4117 13.9502L19.3492 13.4127C19.5881 13.3798 19.8063 13.2596 19.9617 13.0752L22.7367 9.8752C22.9013 9.68013 22.9861 9.43012 22.9742 9.1752L22.8367 6.1377" stroke="white" stroke-width="1.6" stroke-linecap="round" stroke-linejoin="round"/>
<path d="M23.3866 25.4625L22.0366 24.1125C21.9117 23.9878 21.7567 23.8973 21.5866 23.85L18.8991 23.15C18.6631 23.0854 18.4589 22.9365 18.3253 22.7315C18.1917 22.5265 18.1379 22.2796 18.1741 22.0375L18.4616 20.0126C18.4901 19.8422 18.5613 19.6819 18.6683 19.5464C18.7754 19.4109 18.915 19.3047 19.0741 19.2375L22.8741 17.65C23.0506 17.5764 23.2445 17.555 23.4328 17.5882C23.6211 17.6214 23.796 17.708 23.9366 17.8375L27.0491 20.6875" stroke="white" stroke-width="1.6" stroke-linecap="round" stroke-linejoin="round"/>
</svg>
