<svg width="183" height="54" viewBox="0 0 183 54" fill="none" xmlns="http://www.w3.org/2000/svg">
<rect width="182.25" height="54" rx="5" fill="white"/>
<path d="M91.9832 29.3641C88.808 29.3641 86.22 31.7792 86.22 35.1056C86.22 38.4118 88.808 40.8472 91.9832 40.8472C95.1597 40.8472 97.7477 38.4118 97.7477 35.1056C97.7463 31.7792 95.1584 29.3641 91.9832 29.3641ZM91.9832 38.5873C90.243 38.5873 88.7432 37.1522 88.7432 35.107C88.7432 33.0401 90.2444 31.6267 91.9832 31.6267C93.7233 31.6267 95.2232 33.0401 95.2232 35.107C95.2232 37.1509 93.7233 38.5873 91.9832 38.5873ZM79.4092 29.3641C76.234 29.3641 73.6461 31.7792 73.6461 35.1056C73.6461 38.4118 76.234 40.8472 79.4092 40.8472C82.5858 40.8472 85.1738 38.4118 85.1738 35.1056C85.1738 31.7792 82.5858 29.3641 79.4092 29.3641ZM79.4092 38.5873C77.6691 38.5873 76.1692 37.1522 76.1692 35.107C76.1692 33.0401 77.6704 31.6267 79.4092 31.6267C81.1494 31.6267 82.6493 33.0401 82.6493 35.107C82.6506 37.1509 81.1494 38.5873 79.4092 38.5873ZM64.4539 31.1272V33.5626H70.2833C70.1091 34.9328 69.6528 35.9332 68.9562 36.6284C68.1084 37.4762 66.7814 38.4118 64.4539 38.4118C60.8656 38.4118 58.0603 35.5187 58.0603 31.9304C58.0603 28.3421 60.8656 25.4491 64.4539 25.4491C66.3898 25.4491 67.8033 26.2105 68.8469 27.1892L70.5654 25.4707C69.1074 24.0788 67.1728 23.0137 64.4539 23.0137C59.5386 23.0137 55.4062 27.0151 55.4062 31.9304C55.4062 36.8458 59.5386 40.8472 64.4539 40.8472C67.1067 40.8472 69.1088 39.9764 70.6734 38.3456C72.2826 36.7364 72.7835 34.4738 72.7835 32.6473C72.7835 32.083 72.7403 31.5605 72.6525 31.1258H64.4539V31.1272ZM125.62 33.0185C125.142 31.736 123.684 29.3641 120.704 29.3641C117.747 29.3641 115.288 31.6915 115.288 35.1056C115.288 38.324 117.725 40.8472 120.987 40.8472C123.618 40.8472 125.141 39.238 125.772 38.3024L123.815 36.997C123.163 37.9541 122.27 38.5846 120.987 38.5846C119.704 38.5846 118.79 37.9973 118.203 36.8444L125.88 33.6692L125.62 33.0185ZM117.79 34.9328C117.725 32.7134 119.508 31.5835 120.792 31.5835C121.792 31.5835 122.64 32.0843 122.924 32.8012L117.79 34.9328ZM111.549 40.5002H114.071V23.6239H111.549V40.5002ZM107.415 30.6479H107.329C106.763 29.9729 105.675 29.3641 104.306 29.3641C101.435 29.3641 98.8034 31.8872 98.8034 35.1286C98.8034 38.347 101.435 40.8485 104.306 40.8485C105.676 40.8485 106.763 40.2397 107.329 39.5444H107.415V40.3706C107.415 42.5671 106.24 43.7416 104.349 43.7416C102.805 43.7416 101.848 42.6332 101.456 41.6977L99.2597 42.6116C99.8901 44.1331 101.564 46.0042 104.349 46.0042C107.307 46.0042 109.809 44.264 109.809 40.0223V29.7137H107.416V30.6479H107.415ZM104.523 38.5873C102.783 38.5873 101.326 37.1293 101.326 35.1286C101.326 33.1049 102.783 31.6267 104.523 31.6267C106.241 31.6267 107.589 33.1049 107.589 35.1286C107.589 37.1293 106.241 38.5873 104.523 38.5873ZM137.438 23.6239H131.402V40.5002H133.92V34.1066H137.436C140.228 34.1066 142.974 32.0857 142.974 28.8659C142.974 25.6462 140.229 23.6239 137.438 23.6239ZM137.502 31.7576H133.92V25.9729H137.502C139.386 25.9729 140.455 27.5321 140.455 28.8659C140.455 30.1727 139.386 31.7576 137.502 31.7576ZM153.071 29.3344C151.247 29.3344 149.358 30.1376 148.576 31.9183L150.812 32.8511C151.29 31.9183 152.181 31.6132 153.114 31.6132C154.417 31.6132 155.741 32.3948 155.763 33.784V33.9581C155.306 33.6976 154.329 33.3074 153.135 33.3074C150.726 33.3074 148.271 34.6318 148.271 37.1063C148.271 39.3649 150.248 40.8188 152.462 40.8188C154.155 40.8188 155.089 40.0588 155.675 39.1678H155.761V40.4705H158.194V34C158.195 31.0057 155.957 29.3344 153.071 29.3344ZM152.766 38.5832C151.942 38.5832 150.79 38.1701 150.79 37.1495C150.79 35.8468 152.224 35.3473 153.462 35.3473C154.568 35.3473 155.09 35.5862 155.763 35.9116C155.567 37.4762 154.221 38.5832 152.766 38.5832ZM167.053 29.7029L164.165 37.0199H164.079L161.082 29.7029H158.368L162.862 39.9292L160.3 45.6181H162.927L169.854 29.7029H167.053ZM144.364 40.5002H146.882V23.6239H144.364V40.5002Z" fill="black"/>
<path d="M64.0133 13.8278C64.0133 14.9591 63.6785 15.8596 63.0076 16.5319C62.2462 17.3311 61.2526 17.7307 60.0322 17.7307C58.8631 17.7307 57.8681 17.3257 57.0514 16.5157C56.2333 15.7043 55.8242 14.6999 55.8242 13.5011C55.8242 12.301 56.2333 11.2966 57.0514 10.4866C57.8681 9.67521 58.8631 9.27022 60.0322 9.27022C60.6127 9.27022 61.1675 9.38362 61.694 9.60907C62.2219 9.83587 62.6444 10.1369 62.9603 10.5136L62.2489 11.2264C61.7129 10.5851 60.9745 10.2652 60.0308 10.2652C59.1776 10.2652 58.4405 10.5649 57.8182 11.1643C57.1958 11.7637 56.8853 12.5426 56.8853 13.4998C56.8853 14.4569 57.1958 15.2359 57.8182 15.8353C58.4405 16.4347 59.1776 16.7344 60.0308 16.7344C60.9353 16.7344 61.69 16.4333 62.2934 15.8299C62.6849 15.437 62.9117 14.8903 62.9725 14.1896H60.0308V13.2163H63.9553C63.9958 13.4282 64.0133 13.6321 64.0133 13.8278Z" fill="black"/>
<path d="M70.2369 10.4448H66.5487V13.0125H69.8751V13.9858H66.5487V16.5535H70.2369V17.5498H65.5079V9.44984H70.2369V10.4448Z" fill="black"/>
<path d="M74.6256 17.5498H73.5848V10.4448H71.3222V9.44984H76.8882V10.4448H74.6256V17.5498Z" fill="black"/>
<path d="M80.9152 17.5498V9.44984H81.9561V17.5498H80.9152Z" fill="black"/>
<path d="M86.572 17.5498H85.5311V10.4448H83.2685V9.44984H88.8346V10.4448H86.572V17.5498Z" fill="black"/>
<path d="M99.371 16.5036C98.5745 17.3217 97.5849 17.7307 96.401 17.7307C95.217 17.7307 94.2275 17.3217 93.4324 16.5036C92.6359 15.6855 92.2389 14.6838 92.2389 13.4998C92.2389 12.3159 92.6359 11.3142 93.4324 10.4961C94.2275 9.67798 95.217 9.26758 96.401 9.26758C97.5782 9.26758 98.5664 9.67933 99.3656 10.5015C100.165 11.3236 100.564 12.3226 100.564 13.4998C100.564 14.6838 100.166 15.6855 99.371 16.5036ZM94.2005 15.8245C94.7999 16.432 95.5329 16.7344 96.401 16.7344C97.269 16.7344 98.0035 16.4307 98.6015 15.8245C99.2009 15.217 99.502 14.4421 99.502 13.4998C99.502 12.5575 99.2009 11.7826 98.6015 11.1751C98.0035 10.5676 97.269 10.2652 96.401 10.2652C95.5329 10.2652 94.7999 10.569 94.2005 11.1751C93.6025 11.7826 93.3014 12.5575 93.3014 13.4998C93.3014 14.4421 93.6025 15.217 94.2005 15.8245Z" fill="black"/>
<path d="M102.025 17.5498V9.44984H103.291L107.228 15.7503H107.273L107.228 14.1897V9.44984H108.269V17.5498H107.182L103.063 10.9429H103.019L103.063 12.5035V17.5498H102.025Z" fill="black"/>
<path d="M64.0133 13.8278C64.0133 14.9591 63.6785 15.8596 63.0076 16.5319C62.2462 17.3311 61.2526 17.7307 60.0322 17.7307C58.8631 17.7307 57.8681 17.3257 57.0514 16.5157C56.2333 15.7043 55.8242 14.6999 55.8242 13.5011C55.8242 12.301 56.2333 11.2966 57.0514 10.4866C57.8681 9.67521 58.8631 9.27022 60.0322 9.27022C60.6127 9.27022 61.1675 9.38362 61.694 9.60907C62.2219 9.83587 62.6444 10.1369 62.9603 10.5136L62.2489 11.2264C61.7129 10.5851 60.9745 10.2652 60.0308 10.2652C59.1776 10.2652 58.4405 10.5649 57.8182 11.1643C57.1958 11.7637 56.8853 12.5426 56.8853 13.4998C56.8853 14.4569 57.1958 15.2359 57.8182 15.8353C58.4405 16.4347 59.1776 16.7344 60.0308 16.7344C60.9353 16.7344 61.69 16.4333 62.2934 15.8299C62.6849 15.437 62.9117 14.8903 62.9725 14.1896H60.0308V13.2163H63.9553C63.9958 13.4282 64.0133 13.6321 64.0133 13.8278Z" stroke="black" stroke-width="0.27" stroke-miterlimit="10"/>
<path d="M70.2369 10.4448H66.5487V13.0125H69.8751V13.9858H66.5487V16.5535H70.2369V17.5498H65.5079V9.44984H70.2369V10.4448Z" stroke="black" stroke-width="0.27" stroke-miterlimit="10"/>
<path d="M74.6256 17.5498H73.5848V10.4448H71.3222V9.44984H76.8882V10.4448H74.6256V17.5498Z" stroke="black" stroke-width="0.27" stroke-miterlimit="10"/>
<path d="M80.9152 17.5498V9.44984H81.9561V17.5498H80.9152Z" stroke="black" stroke-width="0.27" stroke-miterlimit="10"/>
<path d="M86.572 17.5498H85.5311V10.4448H83.2685V9.44984H88.8346V10.4448H86.572V17.5498Z" stroke="black" stroke-width="0.27" stroke-miterlimit="10"/>
<path d="M99.371 16.5036C98.5745 17.3217 97.5849 17.7307 96.401 17.7307C95.217 17.7307 94.2275 17.3217 93.4324 16.5036C92.6359 15.6855 92.2389 14.6838 92.2389 13.4998C92.2389 12.3159 92.6359 11.3142 93.4324 10.4961C94.2275 9.67798 95.217 9.26758 96.401 9.26758C97.5782 9.26758 98.5664 9.67933 99.3656 10.5015C100.165 11.3236 100.564 12.3226 100.564 13.4998C100.564 14.6838 100.166 15.6855 99.371 16.5036ZM94.2005 15.8245C94.7999 16.432 95.5329 16.7344 96.401 16.7344C97.269 16.7344 98.0035 16.4307 98.6015 15.8245C99.2009 15.217 99.502 14.4421 99.502 13.4998C99.502 12.5575 99.2009 11.7826 98.6015 11.1751C98.0035 10.5676 97.269 10.2652 96.401 10.2652C95.5329 10.2652 94.7999 10.569 94.2005 11.1751C93.6025 11.7826 93.3014 12.5575 93.3014 13.4998C93.3014 14.4421 93.6025 15.217 94.2005 15.8245Z" stroke="black" stroke-width="0.27" stroke-miterlimit="10"/>
<path d="M102.025 17.5498V9.44984H103.291L107.228 15.7503H107.273L107.228 14.1897V9.44984H108.269V17.5498H107.182L103.063 10.9429H103.019L103.063 12.5035V17.5498H102.025Z" stroke="black" stroke-width="0.27" stroke-miterlimit="10"/>
<path fill-rule="evenodd" clip-rule="evenodd" d="M34.9039 19.2142L19.3494 10.1935C18.762 9.84171 18.0764 9.63867 17.3429 9.63867C15.8294 9.63867 14.4983 10.5556 13.8599 11.8374L13.9772 11.9547L28.0712 26.0456L34.9039 19.2142ZM13.463 13.3495C13.4603 13.4068 13.459 13.4643 13.459 13.522V40.4783C13.459 40.5361 13.4603 40.5936 13.463 40.651L27.1165 27.0001L13.463 13.3495ZM13.8601 42.163C14.4986 43.4447 15.8298 44.3616 17.3429 44.3616C18.0606 44.3616 18.7346 44.1675 19.3125 43.8268L19.3584 43.8L34.9305 34.8124L28.0712 27.9546L13.9773 42.0458L13.8601 42.163ZM36.141 34.1137L42.4819 30.454C43.7 29.7964 44.5269 28.5123 44.5269 27.0315C44.5269 25.5613 43.7111 24.2836 42.5051 23.6238L42.4913 23.6144L36.1124 19.915L29.0259 27.0001L36.141 34.1137Z" fill="black"/>
</svg>
