<svg width="127" height="38" viewBox="0 0 127 38" fill="none" xmlns="http://www.w3.org/2000/svg">
<path d="M63.6385 20.3154C61.4418 20.3154 59.6513 21.9863 59.6513 24.2876C59.6513 26.575 61.4418 28.2599 63.6385 28.2599C65.8362 28.2599 67.6267 26.575 67.6267 24.2876C67.6257 21.9863 65.8353 20.3154 63.6385 20.3154ZM63.6385 26.6964C62.4346 26.6964 61.397 25.7036 61.397 24.2886C61.397 22.8586 62.4356 21.8807 63.6385 21.8807C64.8424 21.8807 65.8801 22.8586 65.8801 24.2886C65.8801 25.7026 64.8424 26.6964 63.6385 26.6964ZM54.9393 20.3154C52.7426 20.3154 50.9521 21.9863 50.9521 24.2876C50.9521 26.575 52.7426 28.2599 54.9393 28.2599C57.137 28.2599 58.9275 26.575 58.9275 24.2876C58.9275 21.9863 57.137 20.3154 54.9393 20.3154ZM54.9393 26.6964C53.7354 26.6964 52.6978 25.7036 52.6978 24.2886C52.6978 22.8586 53.7364 21.8807 54.9393 21.8807C56.1433 21.8807 57.1809 22.8586 57.1809 24.2886C57.1819 25.7026 56.1433 26.6964 54.9393 26.6964ZM44.5926 21.5352V23.2201H48.6256C48.5051 24.1681 48.1894 24.8602 47.7075 25.3412C47.1209 25.9277 46.2028 26.575 44.5926 26.575C42.1101 26.575 40.1692 24.5734 40.1692 22.0909C40.1692 19.6083 42.1101 17.6068 44.5926 17.6068C45.9319 17.6068 46.9098 18.1336 47.6318 18.8107L48.8208 17.6217C47.8121 16.6588 46.4737 15.9219 44.5926 15.9219C41.192 15.9219 38.333 18.6902 38.333 22.0909C38.333 25.4915 41.192 28.2599 44.5926 28.2599C46.4279 28.2599 47.813 27.6575 48.8955 26.5292C50.0088 25.4159 50.3553 23.8505 50.3553 22.5868C50.3553 22.1964 50.3254 21.835 50.2647 21.5342H44.5926V21.5352ZM86.9098 22.8437C86.5792 21.9564 85.5705 20.3154 83.5092 20.3154C81.4628 20.3154 79.762 21.9256 79.762 24.2876C79.762 26.5143 81.4478 28.2599 83.7044 28.2599C85.5247 28.2599 86.5783 27.1466 87.0154 26.4993L85.6611 25.5961C85.21 26.2583 84.5926 26.6945 83.7044 26.6945C82.8171 26.6945 82.1848 26.2882 81.7785 25.4906L87.0901 23.2939L86.9098 22.8437ZM81.4927 24.1681C81.4478 22.6326 82.6816 21.8508 83.5699 21.8508C84.262 21.8508 84.8485 22.1974 85.0446 22.6933L81.4927 24.1681ZM77.1748 28.0198H78.9195V16.344H77.1748V28.0198ZM74.315 21.2036H74.2552C73.8638 20.7366 73.1111 20.3154 72.164 20.3154C70.1774 20.3154 68.357 22.061 68.357 24.3035C68.357 26.5301 70.1774 28.2608 72.164 28.2608C73.112 28.2608 73.8638 27.8396 74.2552 27.3586H74.315V27.9302C74.315 29.4498 73.5024 30.2624 72.1939 30.2624C71.1254 30.2624 70.4632 29.4956 70.1923 28.8483L68.6727 29.4806C69.1089 30.5332 70.2671 31.8277 72.1939 31.8277C74.2402 31.8277 75.9709 30.6238 75.9709 27.6892V20.5573H74.3159V21.2036H74.315ZM72.3144 26.6964C71.1104 26.6964 70.1027 25.6877 70.1027 24.3035C70.1027 22.9034 71.1104 21.8807 72.3144 21.8807C73.5024 21.8807 74.4354 22.9034 74.4354 24.3035C74.4354 25.6877 73.5024 26.6964 72.3144 26.6964ZM95.086 16.344H90.9101V28.0198H92.652V23.5965H95.085C97.0165 23.5965 98.9163 22.1983 98.9163 19.9707C98.9163 17.7432 97.0175 16.344 95.086 16.344ZM95.1308 21.9713H92.652V17.9692H95.1308C96.4337 17.9692 97.1734 19.0479 97.1734 19.9707C97.1734 20.8748 96.4337 21.9713 95.1308 21.9713ZM105.902 20.2948C104.64 20.2948 103.333 20.8505 102.792 22.0825L104.339 22.7279C104.67 22.0825 105.286 21.8714 105.931 21.8714C106.833 21.8714 107.749 22.4122 107.764 23.3732V23.4937C107.448 23.3135 106.772 23.0435 105.946 23.0435C104.279 23.0435 102.581 23.9598 102.581 25.6718C102.581 27.2344 103.949 28.2403 105.48 28.2403C106.652 28.2403 107.298 27.7144 107.703 27.098H107.763V27.9993H109.446V23.5227C109.447 21.4511 107.898 20.2948 105.902 20.2948ZM105.69 26.6936C105.121 26.6936 104.324 26.4078 104.324 25.7017C104.324 24.8004 105.316 24.4548 106.172 24.4548C106.937 24.4548 107.299 24.6201 107.764 24.8452C107.629 25.9277 106.697 26.6936 105.69 26.6936ZM115.575 20.5498L113.577 25.612H113.517L111.444 20.5498H109.567L112.676 27.6248L110.903 31.5606H112.721L117.513 20.5498H115.575ZM99.8783 28.0198H101.62V16.344H99.8783V28.0198Z" fill="white"/>
<path d="M44.2877 9.56708C44.2877 10.3498 44.056 10.9727 43.5918 11.4379C43.0651 11.9908 42.3776 12.2672 41.5333 12.2672C40.7245 12.2672 40.0361 11.9871 39.4711 11.4267C38.9051 10.8653 38.6221 10.1704 38.6221 9.34106C38.6221 8.51074 38.9051 7.81585 39.4711 7.25546C40.0361 6.69413 40.7245 6.41393 41.5333 6.41393C41.9349 6.41393 42.3188 6.49239 42.6831 6.64837C43.0482 6.80528 43.3406 7.01356 43.5591 7.27414L43.0669 7.76729C42.6961 7.32364 42.1852 7.10228 41.5324 7.10228C40.9421 7.10228 40.4321 7.30963 40.0016 7.72432C39.571 8.13901 39.3562 8.67793 39.3562 9.34012C39.3562 10.0023 39.571 10.5412 40.0016 10.9559C40.4321 11.3706 40.9421 11.578 41.5324 11.578C42.1582 11.578 42.6803 11.3697 43.0977 10.9522C43.3686 10.6804 43.5255 10.3021 43.5675 9.81739H41.5324V9.14399H44.2475C44.2755 9.29062 44.2877 9.43165 44.2877 9.56708Z" fill="white"/>
<path d="M48.5934 7.22656H46.0418V9.00301H48.3431V9.67641H46.0418V11.4529H48.5934V12.1421H45.3217V6.53821H48.5934V7.22656Z" fill="white"/>
<path d="M51.6297 12.1421H50.9096V7.22656H49.3443V6.53821H53.1951V7.22656H51.6297V12.1421Z" fill="white"/>
<path d="M55.9811 12.1421V6.53821H56.7012V12.1421H55.9811Z" fill="white"/>
<path d="M59.8947 12.1421H59.1746V7.22656H57.6092V6.53821H61.4601V7.22656H59.8947V12.1421Z" fill="white"/>
<path d="M68.7497 11.4183C68.1986 11.9843 67.514 12.2673 66.6949 12.2673C65.8758 12.2673 65.1912 11.9843 64.641 11.4183C64.09 10.8523 63.8154 10.1593 63.8154 9.34017C63.8154 8.52106 64.09 7.82804 64.641 7.26204C65.1912 6.69604 65.8758 6.41211 66.6949 6.41211C67.5093 6.41211 68.193 6.69698 68.7459 7.26578C69.2989 7.83458 69.5753 8.52573 69.5753 9.34017C69.5753 10.1593 69.2998 10.8523 68.7497 11.4183ZM65.1725 10.9485C65.5872 11.3688 66.0943 11.578 66.6949 11.578C67.2954 11.578 67.8035 11.3679 68.2173 10.9485C68.632 10.5282 68.8403 9.99209 68.8403 9.34017C68.8403 8.68824 68.632 8.15213 68.2173 7.73184C67.8035 7.31154 67.2954 7.10233 66.6949 7.10233C66.0943 7.10233 65.5872 7.31248 65.1725 7.73184C64.7587 8.15213 64.5504 8.68824 64.5504 9.34017C64.5504 9.99209 64.7587 10.5282 65.1725 10.9485Z" fill="white"/>
<path d="M70.5859 12.1421V6.53821H71.462L74.1855 10.8971H74.2163L74.1855 9.81745V6.53821H74.9056V12.1421H74.1537L71.3041 7.5712H71.2733L71.3041 8.65089V12.1421H70.5859Z" fill="white"/>
<path d="M44.2877 9.56708C44.2877 10.3498 44.056 10.9727 43.5918 11.4379C43.0651 11.9908 42.3776 12.2672 41.5333 12.2672C40.7245 12.2672 40.0361 11.9871 39.4711 11.4267C38.9051 10.8653 38.6221 10.1704 38.6221 9.34106C38.6221 8.51074 38.9051 7.81585 39.4711 7.25546C40.0361 6.69413 40.7245 6.41393 41.5333 6.41393C41.9349 6.41393 42.3188 6.49239 42.6831 6.64837C43.0482 6.80528 43.3406 7.01356 43.5591 7.27414L43.0669 7.76729C42.6961 7.32364 42.1852 7.10228 41.5324 7.10228C40.9421 7.10228 40.4321 7.30963 40.0016 7.72432C39.571 8.13901 39.3562 8.67793 39.3562 9.34012C39.3562 10.0023 39.571 10.5412 40.0016 10.9559C40.4321 11.3706 40.9421 11.578 41.5324 11.578C42.1582 11.578 42.6803 11.3697 43.0977 10.9522C43.3686 10.6804 43.5255 10.3021 43.5675 9.81739H41.5324V9.14399H44.2475C44.2755 9.29062 44.2877 9.43165 44.2877 9.56708Z" stroke="white" stroke-width="0.186798" stroke-miterlimit="10"/>
<path d="M48.5934 7.22656H46.0418V9.00301H48.3431V9.67641H46.0418V11.4529H48.5934V12.1421H45.3217V6.53821H48.5934V7.22656Z" stroke="white" stroke-width="0.186798" stroke-miterlimit="10"/>
<path d="M51.6297 12.1421H50.9096V7.22656H49.3443V6.53821H53.1951V7.22656H51.6297V12.1421Z" stroke="white" stroke-width="0.186798" stroke-miterlimit="10"/>
<path d="M55.9811 12.1421V6.53821H56.7012V12.1421H55.9811Z" stroke="white" stroke-width="0.186798" stroke-miterlimit="10"/>
<path d="M59.8947 12.1421H59.1746V7.22656H57.6092V6.53821H61.4601V7.22656H59.8947V12.1421Z" stroke="white" stroke-width="0.186798" stroke-miterlimit="10"/>
<path d="M68.7497 11.4183C68.1986 11.9843 67.514 12.2673 66.6949 12.2673C65.8758 12.2673 65.1912 11.9843 64.641 11.4183C64.09 10.8523 63.8154 10.1593 63.8154 9.34017C63.8154 8.52106 64.09 7.82804 64.641 7.26204C65.1912 6.69604 65.8758 6.41211 66.6949 6.41211C67.5093 6.41211 68.193 6.69698 68.7459 7.26578C69.2989 7.83458 69.5753 8.52573 69.5753 9.34017C69.5753 10.1593 69.2998 10.8523 68.7497 11.4183ZM65.1725 10.9485C65.5872 11.3688 66.0943 11.578 66.6949 11.578C67.2954 11.578 67.8035 11.3679 68.2173 10.9485C68.632 10.5282 68.8403 9.99209 68.8403 9.34017C68.8403 8.68824 68.632 8.15213 68.2173 7.73184C67.8035 7.31154 67.2954 7.10233 66.6949 7.10233C66.0943 7.10233 65.5872 7.31248 65.1725 7.73184C64.7587 8.15213 64.5504 8.68824 64.5504 9.34017C64.5504 9.99209 64.7587 10.5282 65.1725 10.9485Z" stroke="white" stroke-width="0.186798" stroke-miterlimit="10"/>
<path d="M70.5859 12.1421V6.53821H71.462L74.1855 10.8971H74.2163L74.1855 9.81745V6.53821H74.9056V12.1421H74.1537L71.3041 7.5712H71.2733L71.3041 8.65089V12.1421H70.5859Z" stroke="white" stroke-width="0.186798" stroke-miterlimit="10"/>
<path fill-rule="evenodd" clip-rule="evenodd" d="M24.1481 13.2937L13.3867 7.05281C12.9804 6.80942 12.5061 6.66895 11.9986 6.66895C10.9514 6.66895 10.0305 7.30337 9.58886 8.19026L9.66998 8.27136L19.4208 18.0201L24.1481 13.2937ZM9.31431 9.23648C9.31246 9.27604 9.31152 9.31576 9.31152 9.35563V28.0052C9.31152 28.0451 9.31246 28.085 9.31432 28.1246L18.7603 18.6805L9.31431 9.23648ZM9.58903 29.1707C10.0308 30.0575 10.9517 30.6918 11.9986 30.6918C12.4952 30.6918 12.9614 30.5575 13.3612 30.3218L13.393 30.3032L24.1663 24.0853L19.4208 19.3408L9.66998 29.0898L9.58903 29.1707ZM25.0038 23.6019L29.3909 21.0699C30.2336 20.615 30.8057 19.7266 30.8057 18.7021C30.8057 17.685 30.2413 16.8009 29.4069 16.3445L29.3974 16.338L24.9841 13.7786L20.0813 18.6804L25.0038 23.6019Z" fill="white"/>
<rect x="0.466995" y="0.466995" width="125.155" height="36.4256" rx="3.73348" stroke="white" stroke-width="0.93399"/>
</svg>
