<svg width="443" height="750" viewBox="0 0 443 750" fill="none" xmlns="http://www.w3.org/2000/svg">
<path opacity="0.3" d="M416.192 400.713C416.162 400.531 415.991 400.409 415.81 400.438C415.628 400.468 415.506 400.639 415.535 400.821L416.192 400.713ZM100.809 689.391C101.586 687.463 102.371 685.563 103.163 683.689L102.55 683.43C101.757 685.307 100.97 687.211 100.191 689.142L100.809 689.391ZM107.996 672.767C109.682 669.129 111.395 665.602 113.136 662.181L112.543 661.88C110.799 665.307 109.081 668.842 107.392 672.487L107.996 672.767ZM118.796 651.597C120.763 648.096 122.761 644.72 124.787 641.463L124.222 641.112C122.19 644.377 120.188 647.762 118.216 651.271L118.796 651.597ZM131.351 631.465C133.655 628.141 135.992 624.957 138.358 621.906L137.833 621.499C135.458 624.559 133.115 627.752 130.804 631.086L131.351 631.465ZM145.876 612.773C148.558 609.705 151.274 606.791 154.02 604.025L153.548 603.557C150.792 606.333 148.066 609.256 145.375 612.336L145.876 612.773ZM162.595 595.944C165.634 593.267 168.705 590.754 171.803 588.393L171.4 587.864C168.289 590.234 165.206 592.758 162.155 595.445L162.595 595.944ZM181.526 581.531C184.884 579.342 188.268 577.314 191.673 575.434L191.352 574.852C187.932 576.739 184.534 578.776 181.163 580.974L181.526 581.531ZM202.245 570.092C205.892 568.412 209.557 566.884 213.235 565.493L213 564.871C209.308 566.267 205.628 567.801 201.967 569.488L202.245 570.092ZM224.484 561.662C228.298 560.499 232.12 559.466 235.943 558.548L235.787 557.901C231.952 558.822 228.118 559.858 224.29 561.025L224.484 561.662ZM247.557 556.089C251.48 555.364 255.397 554.743 259.301 554.207L259.211 553.548C255.298 554.085 251.37 554.708 247.436 555.434L247.557 556.089ZM271.128 552.822C275.107 552.43 279.065 552.11 282.994 551.842L282.948 551.178C279.014 551.447 275.05 551.767 271.063 552.16L271.128 552.822ZM294.878 551.167C298.884 550.979 302.85 550.826 306.768 550.687L306.744 550.022C302.826 550.161 298.857 550.314 294.847 550.502L294.878 551.167ZM318.655 550.28C322.684 550.14 326.649 549.99 330.539 549.806L330.508 549.142C326.622 549.326 322.66 549.475 318.632 549.616L318.655 550.28ZM342.425 549.092C346.486 548.783 350.446 548.402 354.291 547.916L354.208 547.256C350.376 547.74 346.427 548.12 342.375 548.429L342.425 549.092ZM366.07 545.984C370.09 545.148 373.949 544.136 377.629 542.901L377.417 542.27C373.766 543.496 369.933 544.501 365.935 545.332L366.07 545.984ZM388.621 538.21C392.154 536.319 395.455 534.112 398.5 531.531L398.07 531.024C395.064 533.572 391.802 535.752 388.307 537.623L388.621 538.21ZM406.667 522.843C408.95 519.795 411.001 516.395 412.803 512.603L412.203 512.318C410.418 516.072 408.389 519.433 406.135 522.444L406.667 522.843ZM417.027 501.474C418.09 497.9 418.989 494.058 419.715 489.926L419.06 489.811C418.337 493.92 417.444 497.737 416.39 501.284L417.027 501.474ZM421.246 478.123C421.583 474.3 421.8 470.269 421.891 466.021L421.226 466.006C421.135 470.241 420.919 474.257 420.583 478.064L421.246 478.123ZM421.84 454.302C421.732 450.49 421.536 446.524 421.251 442.397L420.588 442.443C420.872 446.562 421.067 450.519 421.175 454.321L421.84 454.302ZM420.222 430.469C419.834 426.681 419.379 422.772 418.855 418.737L418.195 418.822C418.719 422.852 419.173 426.755 419.56 430.537L420.222 430.469ZM417.175 406.895C416.863 404.864 416.536 402.803 416.192 400.713L415.535 400.821C415.879 402.909 416.206 404.967 416.517 406.996L417.175 406.895ZM416.52 400.659C416.461 400.296 416.118 400.051 415.756 400.11C415.393 400.17 415.148 400.512 415.207 400.875L416.52 400.659ZM101.117 689.516C101.894 687.59 102.678 685.691 103.469 683.819L102.243 683.301C101.45 685.18 100.663 687.085 99.883 689.018L101.117 689.516ZM108.298 672.907C109.982 669.273 111.694 665.749 113.433 662.332L112.247 661.729C110.5 665.16 108.781 668.699 107.091 672.347L108.298 672.907ZM119.086 651.76C121.051 648.264 123.046 644.892 125.069 641.639L123.94 640.936C121.905 644.206 119.9 647.595 117.926 651.108L119.086 651.76ZM131.624 631.654C133.925 628.335 136.258 625.156 138.621 622.11L137.57 621.295C135.192 624.359 132.845 627.558 130.531 630.896L131.624 631.654ZM146.126 612.992C148.804 609.929 151.515 607.021 154.256 604.26L153.312 603.322C150.551 606.103 147.82 609.032 145.124 612.117L146.126 612.992ZM162.815 596.194C165.848 593.522 168.913 591.014 172.005 588.658L171.198 587.6C168.081 589.975 164.992 592.503 161.935 595.195L162.815 596.194ZM181.708 581.81C185.058 579.625 188.435 577.601 191.834 575.726L191.191 574.56C187.764 576.452 184.359 578.493 180.981 580.695L181.708 581.81ZM202.384 570.395C206.024 568.718 209.682 567.193 213.353 565.804L212.882 564.56C209.183 565.958 205.496 567.496 201.828 569.186L202.384 570.395ZM224.581 561.98C228.389 560.819 232.204 559.788 236.02 558.871L235.709 557.577C231.869 558.5 228.028 559.538 224.193 560.707L224.581 561.98ZM247.617 556.416C251.535 555.693 255.447 555.072 259.347 554.537L259.166 553.218C255.248 553.756 251.315 554.38 247.376 555.107L247.617 556.416ZM271.16 553.153C275.136 552.762 279.091 552.442 283.016 552.174L282.926 550.846C278.989 551.115 275.021 551.436 271.03 551.829L271.16 553.153ZM294.894 551.499C298.898 551.311 302.863 551.158 306.78 551.019L306.732 549.69C302.813 549.829 298.843 549.982 294.831 550.17L294.894 551.499ZM318.667 550.613C322.696 550.472 326.663 550.323 330.555 550.139L330.492 548.809C326.608 548.993 322.648 549.143 318.62 549.283L318.667 550.613ZM342.451 549.424C346.516 549.115 350.481 548.733 354.333 548.246L354.166 546.926C350.341 547.41 346.398 547.789 342.35 548.097L342.451 549.424ZM366.138 546.309C370.168 545.471 374.041 544.456 377.735 543.216L377.312 541.955C373.675 543.175 369.854 544.178 365.867 545.006L366.138 546.309ZM388.778 538.503C392.33 536.602 395.651 534.382 398.715 531.785L397.855 530.77C394.868 533.301 391.626 535.469 388.15 537.33L388.778 538.503ZM406.934 523.042C409.23 519.975 411.292 516.557 413.104 512.746L411.902 512.175C410.126 515.91 408.109 519.252 405.868 522.245L406.934 523.042ZM417.346 501.569C418.413 497.981 419.314 494.127 420.043 489.984L418.732 489.754C418.012 493.851 417.122 497.655 416.071 501.19L417.346 501.569ZM421.577 478.152C421.915 474.321 422.132 470.283 422.224 466.028L420.894 465.999C420.802 470.228 420.587 474.236 420.252 478.035L421.577 478.152ZM422.173 454.293C422.064 450.476 421.869 446.505 421.583 442.374L420.256 442.466C420.54 446.58 420.735 450.533 420.842 454.331L422.173 454.293ZM420.553 430.435C420.165 426.644 419.71 422.732 419.185 418.694L417.866 418.865C418.388 422.892 418.843 426.792 419.23 430.571L420.553 430.435ZM417.503 406.845C417.192 404.812 416.864 402.75 416.52 400.659L415.207 400.875C415.55 402.962 415.877 405.019 416.188 407.047L417.503 406.845Z" fill="white"/>
<path opacity="0.3" d="M97.6696 695.957C97.6934 695.775 97.8603 695.646 98.0425 695.67C98.2247 695.694 98.3531 695.861 98.3294 696.043L97.6696 695.957ZM94.4993 749.5C94.1667 749.495 94.1667 749.495 94.1667 749.495C94.1667 749.495 94.1667 749.495 94.1667 749.494C94.1667 749.494 94.1667 749.494 94.1667 749.494C94.1667 749.494 94.1667 749.493 94.1667 749.493C94.1667 749.491 94.1668 749.49 94.1668 749.487C94.1669 749.482 94.167 749.475 94.1672 749.465C94.1675 749.445 94.168 749.416 94.1687 749.377C94.1701 749.299 94.1723 749.184 94.1752 749.033C94.1812 748.73 94.1905 748.283 94.2039 747.705C94.2307 746.551 94.2738 744.877 94.3394 742.797L95.0044 742.818C94.9389 744.896 94.8958 746.568 94.8691 747.721C94.8557 748.297 94.8464 748.743 94.8405 749.046C94.8375 749.197 94.8354 749.312 94.834 749.389C94.8333 749.428 94.8328 749.457 94.8324 749.476C94.8323 749.486 94.8321 749.493 94.8321 749.498C94.832 749.501 94.832 749.503 94.832 749.504C94.832 749.504 94.832 749.505 94.8319 749.505C94.8319 749.505 94.8319 749.505 94.8319 749.505C94.8319 749.505 94.8319 749.505 94.8319 749.506C94.8319 749.506 94.8319 749.506 94.4993 749.5ZM94.889 729.383C95.0997 725.212 95.3681 720.659 95.7087 715.993L96.3723 716.041C96.0322 720.701 95.764 725.25 95.5535 729.417L94.889 729.383ZM96.8867 702.624C97.1266 700.357 97.387 698.124 97.6696 695.957L98.3294 696.043C98.0475 698.204 97.7877 700.431 97.5483 702.694L96.8867 702.624ZM97.3397 695.914C97.3872 695.55 97.7212 695.293 98.0855 695.34C98.4499 695.388 98.7068 695.722 98.6592 696.086L97.3397 695.914ZM94.4993 749.5C93.8341 749.489 93.8341 749.489 93.8341 749.489C93.8341 749.489 93.8341 749.489 93.8341 749.489C93.8341 749.489 93.8341 749.489 93.8341 749.489C93.8341 749.488 93.8341 749.488 93.8341 749.487C93.8341 749.486 93.8341 749.484 93.8342 749.482C93.8343 749.476 93.8344 749.469 93.8346 749.459C93.8349 749.439 93.8354 749.41 93.8361 749.371C93.8375 749.293 93.8397 749.178 93.8426 749.026C93.8486 748.723 93.8579 748.275 93.8713 747.698C93.8981 746.543 93.9413 744.868 94.0069 742.787L95.3369 742.828C95.2715 744.906 95.2284 746.577 95.2016 747.729C95.1883 748.304 95.179 748.75 95.1731 749.052C95.1701 749.203 95.168 749.318 95.1666 749.395C95.1659 749.434 95.1654 749.463 95.1651 749.482C95.1649 749.492 95.1648 749.499 95.1647 749.504C95.1646 749.506 95.1646 749.508 95.1646 749.509C95.1646 749.51 95.1646 749.51 95.1646 749.511C95.1646 749.511 95.1646 749.511 95.1646 749.511C95.1646 749.511 95.1646 749.511 95.1646 749.511C95.1646 749.511 95.1646 749.511 94.4993 749.5ZM94.5568 729.367C94.7675 725.194 95.0361 720.637 95.3769 715.968L96.7041 716.065C96.3642 720.722 96.0961 725.269 95.8858 729.434L94.5568 729.367ZM96.5559 702.589C96.796 700.319 97.0567 698.084 97.3397 695.914L98.6592 696.086C98.3778 698.244 98.1183 700.469 97.8792 702.729L96.5559 702.589Z" fill="white"/>
<g opacity="0.3">
<path d="M317.809 707.253L326.34 719.367L340.996 718.009" stroke="white" stroke-linecap="round" stroke-linejoin="round"/>
<path d="M320.822 731.313L326.345 719.354" stroke="white" stroke-linecap="round" stroke-linejoin="round"/>
<path d="M329.741 704.829L320.898 705.48C318.895 705.627 316.567 707.239 315.726 709.059L312.286 716.509C311.446 718.328 311.728 721.146 312.916 722.766L318.148 729.934C319.268 731.458 321.734 732.597 323.62 732.461L332.47 731.796C334.473 731.649 336.801 730.037 337.641 728.217L341.082 720.768C341.922 718.948 341.639 716.13 340.452 714.51L335.219 707.343C334.087 705.812 331.634 704.679 329.741 704.829Z" stroke="white" stroke-linecap="round" stroke-linejoin="round"/>
</g>
<circle opacity="0.3" cx="409" cy="381" r="5.5" stroke="white"/>
<g opacity="0.3">
<path d="M317.674 567.95L324.999 589.112C325.311 590.025 326.611 590 326.899 589.075L329.849 579.5C329.893 579.343 329.978 579.201 330.094 579.087C330.21 578.973 330.354 578.892 330.511 578.85L340.074 575.9C340.999 575.612 341.024 574.312 340.111 574L318.949 566.675C318.771 566.612 318.579 566.602 318.395 566.643C318.212 566.685 318.043 566.778 317.91 566.911C317.777 567.045 317.684 567.213 317.642 567.397C317.6 567.58 317.611 567.772 317.674 567.95V567.95Z" stroke="white" stroke-linecap="round" stroke-linejoin="round"/>
</g>
<g opacity="0.3">
<path d="M436.596 49.2486C439.355 50.1416 442.315 48.6293 443.208 45.8707C444.101 43.1122 442.588 40.152 439.83 39.259C437.071 38.366 434.111 39.8783 433.218 42.6369C432.325 45.3955 433.837 48.3556 436.596 49.2486Z" stroke="white" stroke-linecap="round" stroke-linejoin="round"/>
<path d="M450.699 48.2962C447.061 59.5345 431.745 64.2331 431.745 64.2331C431.745 64.2331 422.087 51.4499 425.725 40.2116C426.797 36.8999 429.141 34.1496 432.241 32.5659C435.341 30.9822 438.943 30.6948 442.255 31.7669C445.566 32.839 448.317 35.1827 449.9 38.2826C451.484 41.3824 451.771 44.9844 450.699 48.2962V48.2962Z" stroke="white" stroke-linecap="round" stroke-linejoin="round"/>
</g>
<g opacity="0.3">
<path d="M295 155.75C300.385 155.75 304.75 151.385 304.75 146C304.75 140.615 300.385 136.25 295 136.25C289.615 136.25 285.25 140.615 285.25 146C285.25 151.385 289.615 155.75 295 155.75Z" stroke="white" stroke-miterlimit="10"/>
<path d="M296.726 147.727L299.58 141.409L293.273 144.273L290.693 150.306L296.726 147.727Z" stroke="white" stroke-linecap="round" stroke-linejoin="round"/>
</g>
<g opacity="0.3">
<path d="M28.2275 15.8301L39.7311 32.1649L59.4943 30.3334" stroke="white" stroke-linecap="round" stroke-linejoin="round"/>
<path d="M32.2926 48.2732L39.7393 32.1475" stroke="white" stroke-linecap="round" stroke-linejoin="round"/>
<path d="M44.319 12.562L32.3947 13.4404C29.6933 13.6382 26.5538 15.8123 25.4208 18.2658L20.7821 28.311C19.6491 30.7645 20.0299 34.5643 21.6311 36.7489L28.6867 46.4136C30.1963 48.4696 33.521 50.0049 36.0651 49.8208L47.9976 48.9246C50.699 48.7269 53.8384 46.5528 54.9714 44.0993L59.6102 34.054C60.7432 31.6005 60.3624 27.8008 58.7612 25.6161L51.7055 15.9515C50.1782 13.8872 46.8713 12.3601 44.319 12.562Z" stroke="white" stroke-linecap="round" stroke-linejoin="round"/>
</g>
</svg>
