<svg width="24" height="24" viewBox="0 0 24 24" fill="none" xmlns="http://www.w3.org/2000/svg">
<path d="M13.5 21H10.5" stroke="white" stroke-width="1.5" stroke-linecap="round" stroke-linejoin="round"/>
<path d="M11.5312 1.85628C9.74995 3.28128 3.79682 8.98128 8.99995 18H14.9999C20.0999 8.98128 14.2312 3.29066 12.4687 1.85628C12.3372 1.74645 12.1713 1.68628 11.9999 1.68628C11.8286 1.68628 11.6627 1.74645 11.5312 1.85628Z" stroke="white" stroke-width="1.5" stroke-linecap="round" stroke-linejoin="round"/>
<path d="M6.92778 10.4438L3.98403 13.9688C3.90987 14.0554 3.85754 14.1584 3.83144 14.2693C3.80534 14.3803 3.80623 14.4958 3.83403 14.6063L4.98715 19.8282C5.01498 19.9523 5.07392 20.0674 5.15842 20.1624C5.24293 20.2575 5.35024 20.3295 5.47024 20.3717C5.59024 20.4139 5.71901 20.4249 5.84442 20.4036C5.96983 20.3823 6.08777 20.3295 6.18715 20.2501L8.99965 18.0001" stroke="white" stroke-width="1.5" stroke-linecap="round" stroke-linejoin="round"/>
<path d="M17.0156 10.3687L20.0156 13.9687C20.0898 14.0552 20.1421 14.1582 20.1682 14.2691C20.1943 14.3801 20.1934 14.4956 20.1656 14.6062L19.0125 19.828C18.9847 19.9522 18.9257 20.0672 18.8412 20.1622C18.7567 20.2573 18.6494 20.3293 18.5294 20.3715C18.4094 20.4137 18.2806 20.4247 18.1552 20.4034C18.0298 20.3821 17.9119 20.3293 17.8125 20.2499L15 17.9999" stroke="white" stroke-width="1.5" stroke-linecap="round" stroke-linejoin="round"/>
<path d="M12 10.125C12.6213 10.125 13.125 9.62132 13.125 9C13.125 8.37868 12.6213 7.875 12 7.875C11.3787 7.875 10.875 8.37868 10.875 9C10.875 9.62132 11.3787 10.125 12 10.125Z" fill="white"/>
</svg>
