<svg width="28" height="28" viewBox="0 0 28 28" fill="none" xmlns="http://www.w3.org/2000/svg">
<path d="M14 14L7.35 9.0125C7.24195 8.93042 7.1542 8.82461 7.09351 8.70324C7.03283 8.58188 7.00084 8.44819 7 8.3125V4.375C7 4.14294 7.09219 3.92038 7.25628 3.75628C7.42038 3.59219 7.64294 3.5 7.875 3.5H20.125C20.3571 3.5 20.5796 3.59219 20.7437 3.75628C20.9078 3.92038 21 4.14294 21 4.375V8.26875C20.9992 8.40444 20.9672 8.53813 20.9065 8.65949C20.8458 8.78086 20.7581 8.88667 20.65 8.96875L14 14Z" stroke="white" stroke-width="1.75" stroke-linecap="round" stroke-linejoin="round"/>
<path d="M14 14L7.35 18.9875C7.24195 19.0696 7.1542 19.1754 7.09351 19.2968C7.03283 19.4181 7.00084 19.5518 7 19.6875V23.625C7 23.8571 7.09219 24.0796 7.25628 24.2437C7.42038 24.4078 7.64294 24.5 7.875 24.5H20.125C20.3571 24.5 20.5796 24.4078 20.7437 24.2437C20.9078 24.0796 21 23.8571 21 23.625V19.7312C20.9992 19.5956 20.9672 19.4619 20.9065 19.3405C20.8458 19.2191 20.7581 19.1133 20.65 19.0312L14 14Z" stroke="white" stroke-width="1.75" stroke-linecap="round" stroke-linejoin="round"/>
</svg>
