<svg width="163" height="55" viewBox="0 0 163 55" fill="none" xmlns="http://www.w3.org/2000/svg">
<rect x="0.992188" y="1.18652" width="161.509" height="53.1697" rx="6.5" fill="#ffffff"/>
<path d="M110.897 26.6893V29.7918H108.953V31.8265H110.897V38.7399C110.897 41.1006 111.965 42.0448 114.652 42.0448C115.124 42.0448 115.574 41.9886 115.967 41.9212V39.909C115.63 39.9427 115.416 39.9652 115.046 39.9652C113.843 39.9652 113.314 39.4031 113.314 38.1216V31.8265H115.967V29.7918H113.314V26.6893H110.897Z" fill="#000000"/>
<path d="M122.811 42.2135C126.386 42.2135 128.578 39.8191 128.578 35.8509C128.578 31.9052 126.375 29.4996 122.811 29.4996C119.237 29.4996 117.033 31.9052 117.033 35.8509C117.033 39.8191 119.225 42.2135 122.811 42.2135ZM122.811 40.0664C120.709 40.0664 119.529 38.5263 119.529 35.8509C119.529 33.198 120.709 31.6467 122.811 31.6467C124.902 31.6467 126.094 33.198 126.094 35.8509C126.094 38.5151 124.902 40.0664 122.811 40.0664Z" fill="#000000"/>
<path d="M130.454 41.9774H132.871V34.7493C132.871 33.0293 134.163 31.8715 135.996 31.8715C136.423 31.8715 137.142 31.9502 137.345 32.0176V29.6345C137.086 29.567 136.625 29.5333 136.265 29.5333C134.669 29.5333 133.309 30.4101 132.961 31.6129H132.781V29.7356H130.454V41.9774Z" fill="#000000"/>
<path d="M143.346 31.5567C145.133 31.5567 146.302 32.8045 146.358 34.7268H140.176C140.311 32.8158 141.558 31.5567 143.346 31.5567ZM146.347 38.6725C145.897 39.628 144.897 40.1563 143.436 40.1563C141.502 40.1563 140.254 38.7961 140.176 36.649V36.5141H148.82V35.671C148.82 31.8265 146.763 29.4996 143.357 29.4996C139.906 29.4996 137.714 31.9839 137.714 35.8959C137.714 39.8078 139.861 42.2135 143.368 42.2135C146.167 42.2135 148.123 40.8645 148.674 38.6725H146.347Z" fill="#000000"/>
<path d="M95.048 37.4567C95.2344 40.4627 97.7394 42.3852 101.468 42.3852C105.453 42.3852 107.946 40.3695 107.946 37.1538C107.946 34.6255 106.524 33.2273 103.076 32.4234L101.223 31.969C99.0327 31.4563 98.1472 30.7689 98.1472 29.5688C98.1472 28.0541 99.5221 27.0638 101.584 27.0638C103.542 27.0638 104.893 28.0308 105.138 29.5805H107.678C107.526 26.7492 105.033 24.7568 101.619 24.7568C97.9491 24.7568 95.5024 26.7492 95.5024 29.7436C95.5024 32.2136 96.8889 33.6817 99.9298 34.3924L102.097 34.9167C104.322 35.441 105.301 36.21 105.301 37.4917C105.301 38.983 103.763 40.0666 101.666 40.0666C99.4172 40.0666 97.8559 39.0529 97.6345 37.4567H95.048Z" fill="#000000"/>
<path d="M70.0116 29.5333C68.3479 29.5333 66.909 30.3652 66.1671 31.7591H65.9872V29.7356H63.6603V46.0467H66.0772V40.1226H66.2683C66.909 41.4153 68.2917 42.1797 70.0341 42.1797C73.1255 42.1797 75.0927 39.7404 75.0927 35.8509C75.0927 31.9614 73.1255 29.5333 70.0116 29.5333ZM69.3259 40.0102C67.3025 40.0102 66.0322 38.4139 66.0322 35.8621C66.0322 33.2991 67.3025 31.7029 69.3371 31.7029C71.3831 31.7029 72.6084 33.2654 72.6084 35.8509C72.6084 38.4476 71.3831 40.0102 69.3259 40.0102Z" fill="#000000"/>
<path d="M83.5497 29.5333C81.886 29.5333 80.4471 30.3652 79.7052 31.7591H79.5253V29.7356H77.1984V46.0467H79.6153V40.1226H79.8064C80.4471 41.4153 81.8298 42.1797 83.5722 42.1797C86.6635 42.1797 88.6308 39.7404 88.6308 35.8509C88.6308 31.9614 86.6635 29.5333 83.5497 29.5333ZM82.864 40.0102C80.8406 40.0102 79.5703 38.4139 79.5703 35.8621C79.5703 33.2991 80.8406 31.7029 82.8752 31.7029C84.9211 31.7029 86.1464 33.2654 86.1464 35.8509C86.1464 38.4476 84.9211 40.0102 82.864 40.0102Z" fill="#000000"/>
<path d="M59.324 41.9774H62.097L56.0267 25.1646H53.2187L47.1484 41.9774H49.8282L51.3778 37.515H57.786L59.324 41.9774ZM54.4887 28.2173H54.6868L57.1219 35.3245H52.042L54.4887 28.2173Z" fill="#000000"/>
<path d="M48.7734 12.4833V20.5939H51.7018C54.1187 20.5939 55.5182 19.1044 55.5182 16.5133C55.5182 13.9615 54.1074 12.4833 51.7018 12.4833H48.7734ZM50.0325 13.6299H51.5613C53.2418 13.6299 54.2367 14.6978 54.2367 16.5302C54.2367 18.3906 53.2587 19.4473 51.5613 19.4473H50.0325V13.6299Z" fill="#000000"/>
<path d="M59.8045 20.7119C61.5919 20.7119 62.6879 19.5147 62.6879 17.5306C62.6879 15.5578 61.5862 14.355 59.8045 14.355C58.0171 14.355 56.9155 15.5578 56.9155 17.5306C56.9155 19.5147 58.0115 20.7119 59.8045 20.7119ZM59.8045 19.6384C58.7534 19.6384 58.1633 18.8683 58.1633 17.5306C58.1633 16.2042 58.7534 15.4285 59.8045 15.4285C60.8499 15.4285 61.4457 16.2042 61.4457 17.5306C61.4457 18.8627 60.8499 19.6384 59.8045 19.6384Z" fill="#000000"/>
<path d="M72.0215 14.473H70.8131L69.7227 19.1438H69.6271L68.3681 14.473H67.2103L65.9512 19.1438H65.8613L64.7653 14.473H63.54L65.2262 20.5939H66.4683L67.7274 16.0861H67.8229L69.0876 20.5939H70.341L72.0215 14.473Z" fill="#000000"/>
<path d="M73.4132 20.5939H74.6216V17.0135C74.6216 16.058 75.1893 15.4622 76.083 15.4622C76.9767 15.4622 77.4039 15.9512 77.4039 16.9348V20.5939H78.6123V16.6313C78.6123 15.1756 77.8591 14.355 76.4933 14.355C75.5715 14.355 74.9645 14.7653 74.6666 15.4454H74.5767V14.473H73.4132V20.5939Z" fill="#000000"/>
<path d="M80.5154 20.5939H81.7239V12.0842H80.5154V20.5939Z" fill="#000000"/>
<path d="M86.2687 20.7119C88.0561 20.7119 89.1521 19.5147 89.1521 17.5306C89.1521 15.5578 88.0505 14.355 86.2687 14.355C84.4814 14.355 83.3797 15.5578 83.3797 17.5306C83.3797 19.5147 84.4757 20.7119 86.2687 20.7119ZM86.2687 19.6384C85.2177 19.6384 84.6275 18.8683 84.6275 17.5306C84.6275 16.2042 85.2177 15.4285 86.2687 15.4285C87.3142 15.4285 87.91 16.2042 87.91 17.5306C87.91 18.8627 87.3142 19.6384 86.2687 19.6384Z" fill="#000000"/>
<path d="M92.7527 19.6777C92.0951 19.6777 91.6173 19.3573 91.6173 18.8065C91.6173 18.2669 91.9995 17.9803 92.8426 17.9241L94.3377 17.8285V18.34C94.3377 19.0988 93.6632 19.6777 92.7527 19.6777ZM92.4436 20.695C93.2473 20.695 93.9162 20.3466 94.2815 19.7339H94.3771V20.5939H95.5405V16.4121C95.5405 15.1194 94.675 14.355 93.1405 14.355C91.7522 14.355 90.763 15.0294 90.6393 16.0805H91.8084C91.9433 15.6477 92.4098 15.4004 93.0843 15.4004C93.9105 15.4004 94.3377 15.7657 94.3377 16.4121V16.9405L92.6796 17.036C91.2239 17.1259 90.4033 17.7611 90.4033 18.8627C90.4033 19.9812 91.2632 20.695 92.4436 20.695Z" fill="#000000"/>
<path d="M99.6414 20.695C100.484 20.695 101.198 20.296 101.564 19.6271H101.659V20.5939H102.817V12.0842H101.609V15.4454H101.519C101.187 14.7709 100.479 14.3718 99.6414 14.3718C98.0957 14.3718 97.1008 15.5971 97.1008 17.5306C97.1008 19.4697 98.0844 20.695 99.6414 20.695ZM99.9842 15.4566C100.996 15.4566 101.631 16.2604 101.631 17.5362C101.631 18.8178 101.002 19.6103 99.9842 19.6103C98.9613 19.6103 98.3486 18.829 98.3486 17.5306C98.3486 16.2435 98.9669 15.4566 99.9842 15.4566Z" fill="#000000"/>
<path d="M110.653 20.7119C112.441 20.7119 113.537 19.5147 113.537 17.5306C113.537 15.5578 112.435 14.355 110.653 14.355C108.866 14.355 107.764 15.5578 107.764 17.5306C107.764 19.5147 108.86 20.7119 110.653 20.7119ZM110.653 19.6384C109.602 19.6384 109.012 18.8683 109.012 17.5306C109.012 16.2042 109.602 15.4285 110.653 15.4285C111.699 15.4285 112.295 16.2042 112.295 17.5306C112.295 18.8627 111.699 19.6384 110.653 19.6384Z" fill="#000000"/>
<path d="M115.136 20.5939H116.345V17.0135C116.345 16.058 116.912 15.4622 117.806 15.4622C118.7 15.4622 119.127 15.9512 119.127 16.9348V20.5939H120.335V16.6313C120.335 15.1756 119.582 14.355 118.216 14.355C117.295 14.355 116.688 14.7653 116.39 15.4454H116.3V14.473H115.136V20.5939Z" fill="#000000"/>
<path d="M125.901 12.9498V14.5011H124.929V15.5184H125.901V18.9751C125.901 20.1555 126.435 20.6276 127.778 20.6276C128.014 20.6276 128.239 20.5995 128.436 20.5658V19.5597C128.267 19.5765 128.16 19.5878 127.975 19.5878C127.374 19.5878 127.109 19.3068 127.109 18.666V15.5184H128.436V14.5011H127.109V12.9498H125.901Z" fill="#000000"/>
<path d="M130.058 20.5939H131.266V17.0192C131.266 16.0917 131.817 15.4679 132.807 15.4679C133.661 15.4679 134.116 15.9625 134.116 16.9405V20.5939H135.325V16.6426C135.325 15.1868 134.521 14.3606 133.217 14.3606C132.295 14.3606 131.649 14.7709 131.351 15.4566H131.255V12.0842H130.058V20.5939Z" fill="#000000"/>
<path d="M139.684 15.3835C140.578 15.3835 141.162 16.0074 141.19 16.9686H138.099C138.166 16.0131 138.79 15.3835 139.684 15.3835ZM141.185 18.9414C140.96 19.4192 140.46 19.6833 139.729 19.6833C138.762 19.6833 138.138 19.0032 138.099 17.9297V17.8622H142.421V17.4407C142.421 15.5184 141.393 14.355 139.69 14.355C137.964 14.355 136.868 15.5971 136.868 17.5531C136.868 19.5091 137.942 20.7119 139.695 20.7119C141.095 20.7119 142.073 20.0374 142.348 18.9414H141.185Z" fill="#000000"/>
<path d="M34.0353 28.1787C34.0646 25.9022 35.2872 23.7482 37.2266 22.5558C36.0031 20.8084 33.9537 19.7005 31.8216 19.6338C29.5475 19.3951 27.3429 20.9946 26.184 20.9946C25.0028 20.9946 23.2185 19.6575 21.2972 19.697C18.7929 19.7779 16.4582 21.2018 15.2398 23.3912C12.6207 27.9258 14.5743 34.5901 17.0832 38.2555C18.3385 40.0504 19.8055 42.0552 21.7251 41.9842C23.6035 41.9062 24.305 40.7863 26.5724 40.7863C28.8188 40.7863 29.477 41.9842 31.4355 41.9389C33.4512 41.9062 34.7211 40.1361 35.9323 38.3243C36.8342 37.0454 37.5282 35.6319 37.9886 34.1363C35.6199 33.1344 34.038 30.7506 34.0353 28.1787Z" fill="#000000"/>
<path d="M30.3359 17.2232C31.4349 15.9039 31.9764 14.2082 31.8453 12.4961C30.1662 12.6724 28.6153 13.4749 27.5014 14.7436C26.4122 15.9832 25.8454 17.6491 25.9525 19.2958C27.6322 19.313 29.2834 18.5323 30.3359 17.2232Z" fill="#000000"/>
<rect x="0.992188" y="1.18652" width="161.509" height="53.1697" rx="6.5" stroke="#000"/>
</svg>
