<svg width="1475" height="512" viewBox="0 0 1475 512" fill="none" xmlns="http://www.w3.org/2000/svg">
<g opacity="0.3">
<path d="M360.557 458.275L360.001 460.196" stroke="white" stroke-linecap="round" stroke-linejoin="round"/>
<path d="M357.225 469.803L356.669 471.724" stroke="white" stroke-linecap="round" stroke-linejoin="round"/>
<path d="M355.28 476.528C361.647 478.368 368.3 474.699 370.141 468.332C371.981 461.965 368.312 455.312 361.945 453.472C355.578 451.631 348.925 455.3 347.085 461.667C345.244 468.034 348.914 474.687 355.28 476.528Z" stroke="white" stroke-linecap="round" stroke-linejoin="round"/>
<path d="M354.343 468.97L358.666 470.219C359.303 470.404 359.987 470.327 360.567 470.007C361.148 469.687 361.578 469.149 361.762 468.512C361.946 467.875 361.869 467.191 361.549 466.61C361.229 466.03 360.691 465.6 360.054 465.416L357.172 464.583C356.535 464.399 355.998 463.969 355.677 463.389C355.357 462.808 355.281 462.124 355.465 461.487C355.649 460.85 356.079 460.312 356.659 459.992C357.24 459.672 357.924 459.596 358.561 459.78L362.884 461.029" stroke="white" stroke-linecap="round" stroke-linejoin="round"/>
</g>
<g opacity="0.3">
<path d="M1294.5 52.0845L1295.05 54.0073" stroke="white" stroke-linecap="round" stroke-linejoin="round"/>
<path d="M1297.8 63.6211L1298.35 65.5439" stroke="white" stroke-linecap="round" stroke-linejoin="round"/>
<path d="M1299.73 70.3512C1306.1 68.5282 1309.79 61.8851 1307.96 55.5133C1306.14 49.1415 1299.5 45.454 1293.13 47.2769C1286.76 49.0999 1283.07 55.743 1284.89 62.1148C1286.71 68.4865 1293.36 72.1741 1299.73 70.3512Z" stroke="white" stroke-linecap="round" stroke-linejoin="round"/>
<path d="M1294.92 64.4461L1299.25 63.2084C1299.88 63.026 1300.42 62.5979 1300.74 62.0181C1301.07 61.4384 1301.14 60.7546 1300.96 60.1172C1300.78 59.4797 1300.35 58.9408 1299.77 58.619C1299.19 58.2972 1298.51 58.2189 1297.87 58.4012L1294.99 59.2264C1294.35 59.4088 1293.67 59.3305 1293.09 59.0087C1292.51 58.6869 1292.08 58.148 1291.9 57.5105C1291.71 56.873 1291.79 56.1892 1292.11 55.6095C1292.44 55.0298 1292.97 54.6017 1293.61 54.4193L1297.94 53.1815" stroke="white" stroke-linecap="round" stroke-linejoin="round"/>
</g>
<g opacity="0.3">
<path d="M687.57 8.89941L687.92 10.1212" stroke="white" stroke-linecap="round" stroke-linejoin="round"/>
<path d="M689.667 16.23L690.017 17.4518" stroke="white" stroke-linecap="round" stroke-linejoin="round"/>
<path d="M690.891 20.5062C694.939 19.3479 697.282 15.1268 696.124 11.0781C694.966 7.02939 690.745 4.68627 686.696 5.84458C682.647 7.0029 680.304 11.224 681.463 15.2727C682.621 19.3214 686.842 21.6645 690.891 20.5062Z" stroke="white" stroke-linecap="round" stroke-linejoin="round"/>
<path d="M687.835 16.7541L690.584 15.9676C690.989 15.8517 691.332 15.5796 691.536 15.2113C691.741 14.8429 691.79 14.4084 691.675 14.0034C691.559 13.5983 691.287 13.2559 690.918 13.0514C690.55 12.8469 690.115 12.7972 689.71 12.9131L687.878 13.4374C687.473 13.5533 687.038 13.5035 686.67 13.299C686.301 13.0946 686.029 12.7521 685.914 12.3471C685.798 11.942 685.847 11.5075 686.052 11.1392C686.256 10.7708 686.599 10.4988 687.004 10.3829L689.753 9.59639" stroke="white" stroke-linecap="round" stroke-linejoin="round"/>
</g>
<g opacity="0.3">
<path d="M987.177 493.594L986.608 494.73" stroke="white" stroke-linecap="round" stroke-linejoin="round"/>
<path d="M983.763 500.411L983.194 501.547" stroke="white" stroke-linecap="round" stroke-linejoin="round"/>
<path d="M981.771 504.388C985.537 506.274 990.118 504.75 992.004 500.985C993.889 497.219 992.365 492.638 988.6 490.753C984.835 488.867 980.254 490.391 978.368 494.156C976.482 497.922 978.006 502.503 981.771 504.388Z" stroke="white" stroke-linecap="round" stroke-linejoin="round"/>
<path d="M982.059 499.558L984.616 500.838C984.992 501.027 985.428 501.058 985.828 500.925C986.228 500.792 986.559 500.506 986.747 500.129C986.936 499.752 986.967 499.316 986.834 498.916C986.701 498.517 986.415 498.186 986.038 497.997L984.334 497.144C983.957 496.955 983.671 496.625 983.538 496.225C983.405 495.825 983.436 495.389 983.625 495.012C983.813 494.635 984.144 494.349 984.544 494.216C984.943 494.083 985.38 494.114 985.756 494.303L988.313 495.583" stroke="white" stroke-linecap="round" stroke-linejoin="round"/>
</g>
<g opacity="0.3">
<path d="M147.02 47.821L135.674 51.729L137.628 57.4019L148.974 53.4939L147.02 47.821Z" stroke="white" stroke-linecap="round" stroke-linejoin="round"/>
<path d="M156.989 64.4825L149.825 43.6818C149.645 43.1596 149.076 42.8821 148.554 43.062L131.535 48.924C131.013 49.1039 130.735 49.673 130.915 50.1952L138.08 70.9958C138.26 71.518 138.829 71.7955 139.351 71.6156L156.37 65.7536C156.892 65.5738 157.169 65.0046 156.989 64.4825Z" stroke="white" stroke-linecap="round" stroke-linejoin="round"/>
<path d="M140.527 62.7493C141.31 62.4795 141.727 61.6259 141.457 60.8426C141.187 60.0593 140.333 59.6431 139.55 59.9129C138.767 60.1827 138.351 61.0363 138.62 61.8196C138.89 62.6029 139.744 63.0191 140.527 62.7493Z" fill="white"/>
<path d="M145.255 61.1209C146.038 60.8511 146.454 59.9974 146.184 59.2142C145.915 58.4309 145.061 58.0147 144.278 58.2844C143.494 58.5542 143.078 59.4079 143.348 60.1912C143.618 60.9744 144.471 61.3907 145.255 61.1209Z" fill="white"/>
<path d="M149.982 59.4925C150.765 59.2227 151.182 58.369 150.912 57.5858C150.642 56.8025 149.788 56.3862 149.005 56.656C148.222 56.9258 147.806 57.7795 148.075 58.5628C148.345 59.346 149.199 59.7623 149.982 59.4925Z" fill="white"/>
<path d="M142.155 67.4769C142.938 67.2071 143.355 66.3534 143.085 65.5701C142.815 64.7869 141.961 64.3706 141.178 64.6404C140.395 64.9102 139.978 65.7639 140.248 66.5471C140.518 67.3304 141.372 67.7466 142.155 67.4769Z" fill="white"/>
<path d="M146.883 65.8484C147.666 65.5786 148.082 64.725 147.812 63.9417C147.542 63.1584 146.689 62.7422 145.906 63.012C145.122 63.2818 144.706 64.1354 144.976 64.9187C145.246 65.702 146.099 66.1182 146.883 65.8484Z" fill="white"/>
<path d="M151.61 64.22C152.393 63.9502 152.81 63.0966 152.54 62.3133C152.27 61.53 151.416 61.1138 150.633 61.3836C149.85 61.6534 149.434 62.507 149.703 63.2903C149.973 64.0736 150.827 64.4898 151.61 64.22Z" fill="white"/>
</g>
<g opacity="0.3">
<path d="M1312.83 428.881L1303.51 432.089L1305.12 436.745L1314.43 433.537L1312.83 428.881Z" stroke="white" stroke-linecap="round" stroke-linejoin="round"/>
<path d="M1321.01 442.557L1315.13 425.484C1314.98 425.055 1314.51 424.828 1314.09 424.975L1300.12 429.787C1299.69 429.934 1299.46 430.402 1299.61 430.83L1305.49 447.903C1305.64 448.332 1306.1 448.56 1306.53 448.412L1320.5 443.601C1320.93 443.453 1321.16 442.986 1321.01 442.557Z" stroke="white" stroke-linecap="round" stroke-linejoin="round"/>
<path d="M1307.5 441.134C1308.14 440.913 1308.48 440.212 1308.26 439.569C1308.04 438.926 1307.34 438.585 1306.7 438.806C1306.05 439.028 1305.71 439.728 1305.93 440.371C1306.15 441.014 1306.85 441.356 1307.5 441.134Z" fill="white"/>
<path d="M1311.38 439.798C1312.02 439.576 1312.36 438.876 1312.14 438.233C1311.92 437.59 1311.22 437.248 1310.58 437.47C1309.93 437.691 1309.59 438.392 1309.81 439.035C1310.03 439.678 1310.73 440.019 1311.38 439.798Z" fill="white"/>
<path d="M1315.26 438.461C1315.9 438.24 1316.24 437.539 1316.02 436.896C1315.8 436.253 1315.1 435.912 1314.46 436.133C1313.81 436.355 1313.47 437.055 1313.69 437.698C1313.91 438.341 1314.62 438.683 1315.26 438.461Z" fill="white"/>
<path d="M1308.83 445.015C1309.48 444.793 1309.82 444.092 1309.6 443.45C1309.37 442.807 1308.67 442.465 1308.03 442.686C1307.39 442.908 1307.05 443.609 1307.27 444.251C1307.49 444.894 1308.19 445.236 1308.83 445.015Z" fill="white"/>
<path d="M1312.71 443.678C1313.36 443.457 1313.7 442.756 1313.48 442.113C1313.26 441.47 1312.56 441.129 1311.91 441.35C1311.27 441.571 1310.93 442.272 1311.15 442.915C1311.37 443.558 1312.07 443.9 1312.71 443.678Z" fill="white"/>
<path d="M1316.59 442.342C1317.24 442.12 1317.58 441.42 1317.36 440.777C1317.14 440.134 1316.43 439.792 1315.79 440.014C1315.15 440.235 1314.81 440.936 1315.03 441.579C1315.25 442.222 1315.95 442.563 1316.59 442.342Z" fill="white"/>
</g>
<g opacity="0.3">
<path d="M41.3051 345.346L26.0005 338.723L22.6889 346.375L37.9935 352.998L41.3051 345.346Z" stroke="white" stroke-linecap="round" stroke-linejoin="round"/>
<path d="M35.9204 371.786L48.0628 343.728C48.3676 343.023 48.0437 342.205 47.3394 341.9L24.3825 331.965C23.6781 331.661 22.86 331.985 22.5552 332.689L10.4127 360.747C10.1079 361.452 10.4318 362.27 11.1362 362.575L34.093 372.509C34.7974 372.814 35.6155 372.49 35.9204 371.786Z" stroke="white" stroke-linecap="round" stroke-linejoin="round"/>
<path d="M20.6523 354.579C21.7089 355.037 22.936 354.551 23.3933 353.494C23.8505 352.438 23.3647 351.21 22.3081 350.753C21.2515 350.296 20.0244 350.782 19.5671 351.838C19.1099 352.895 19.5957 354.122 20.6523 354.579Z" fill="white"/>
<path d="M27.0293 357.338C28.0858 357.795 29.313 357.31 29.7702 356.253C30.2275 355.196 29.7416 353.969 28.685 353.512C27.6285 353.055 26.4013 353.541 25.9441 354.597C25.4868 355.654 25.9727 356.881 27.0293 357.338Z" fill="white"/>
<path d="M33.4062 360.098C34.4628 360.556 35.6899 360.07 36.1472 359.013C36.6044 357.957 36.1186 356.729 35.062 356.272C34.0054 355.815 32.7783 356.301 32.321 357.357C31.8638 358.414 32.3496 359.641 33.4062 360.098Z" fill="white"/>
<path d="M17.8916 360.956C18.9481 361.413 20.1753 360.927 20.6325 359.871C21.0898 358.814 20.6039 357.587 19.5474 357.13C18.4908 356.672 17.2636 357.158 16.8064 358.215C16.3491 359.271 16.835 360.499 17.8916 360.956Z" fill="white"/>
<path d="M24.2695 363.715C25.3261 364.172 26.5532 363.686 27.0105 362.63C27.4677 361.573 26.9818 360.346 25.9253 359.889C24.8687 359.432 23.6415 359.918 23.1843 360.974C22.7271 362.031 23.2129 363.258 24.2695 363.715Z" fill="white"/>
<path d="M30.6464 366.475C31.703 366.932 32.9302 366.446 33.3874 365.39C33.8446 364.333 33.3588 363.106 32.3022 362.649C31.2457 362.191 30.0185 362.677 29.5613 363.734C29.104 364.79 29.5899 366.018 30.6464 366.475Z" fill="white"/>
</g>
<g opacity="0.3">
<path d="M1442.93 211.231L1456.58 220.5L1451.95 227.325L1438.3 218.055L1442.93 211.231Z" stroke="white" stroke-linecap="round" stroke-linejoin="round"/>
<path d="M1423.71 229.753L1440.7 204.728C1441.13 204.1 1441.98 203.937 1442.61 204.363L1463.08 218.267C1463.71 218.694 1463.88 219.549 1463.45 220.177L1446.46 245.202C1446.03 245.83 1445.17 245.994 1444.55 245.567L1424.07 231.663C1423.44 231.236 1423.28 230.381 1423.71 229.753Z" stroke="white" stroke-linecap="round" stroke-linejoin="round"/>
<path d="M1446.18 233.378C1445.23 232.738 1444.99 231.455 1445.63 230.513C1446.27 229.571 1447.55 229.325 1448.49 229.965C1449.44 230.605 1449.68 231.888 1449.04 232.83C1448.4 233.773 1447.12 234.018 1446.18 233.378Z" fill="white"/>
<path d="M1440.49 229.515C1439.55 228.875 1439.3 227.592 1439.94 226.65C1440.58 225.708 1441.86 225.463 1442.81 226.103C1443.75 226.742 1443.99 228.025 1443.35 228.967C1442.71 229.91 1441.43 230.155 1440.49 229.515Z" fill="white"/>
<path d="M1434.8 225.653C1433.86 225.013 1433.61 223.73 1434.25 222.788C1434.89 221.845 1436.18 221.6 1437.12 222.24C1438.06 222.88 1438.31 224.163 1437.67 225.105C1437.03 226.047 1435.74 226.293 1434.8 225.653Z" fill="white"/>
<path d="M1442.31 239.065C1441.37 238.425 1441.13 237.143 1441.77 236.2C1442.41 235.258 1443.69 235.013 1444.63 235.653C1445.57 236.293 1445.82 237.575 1445.18 238.518C1444.54 239.46 1443.26 239.705 1442.31 239.065Z" fill="white"/>
<path d="M1436.63 235.203C1435.68 234.563 1435.44 233.28 1436.08 232.338C1436.72 231.396 1438 231.151 1438.94 231.791C1439.89 232.43 1440.13 233.713 1439.49 234.655C1438.85 235.598 1437.57 235.843 1436.63 235.203Z" fill="white"/>
<path d="M1430.94 231.341C1430 230.701 1429.75 229.418 1430.39 228.476C1431.03 227.533 1432.31 227.288 1433.26 227.928C1434.2 228.568 1434.44 229.851 1433.8 230.793C1433.16 231.735 1431.88 231.981 1430.94 231.341Z" fill="white"/>
</g>
</svg>
