<svg width="18" height="18" viewBox="0 0 18 18" fill="none" xmlns="http://www.w3.org/2000/svg">
<path d="M1.125 8.4375H16.875" stroke="white" stroke-width="1.2" stroke-linecap="round" stroke-linejoin="round"/>
<path d="M15.75 12.9375V14.625C15.75 14.7742 15.6907 14.9173 15.5852 15.0227C15.4798 15.1282 15.3367 15.1875 15.1875 15.1875H13.5C13.3508 15.1875 13.2077 15.1282 13.1023 15.0227C12.9968 14.9173 12.9375 14.7742 12.9375 14.625V12.9375" stroke="white" stroke-width="1.2" stroke-linecap="round" stroke-linejoin="round"/>
<path d="M5.0625 12.9375V14.625C5.0625 14.7742 5.00324 14.9173 4.89775 15.0227C4.79226 15.1282 4.64918 15.1875 4.5 15.1875H2.8125C2.66332 15.1875 2.52024 15.1282 2.41475 15.0227C2.30926 14.9173 2.25 14.7742 2.25 14.625V12.9375" stroke="white" stroke-width="1.2" stroke-linecap="round" stroke-linejoin="round"/>
<path d="M4.5 10.6875H5.625" stroke="white" stroke-width="1.2" stroke-linecap="round" stroke-linejoin="round"/>
<path d="M12.375 10.6875H13.5" stroke="white" stroke-width="1.2" stroke-linecap="round" stroke-linejoin="round"/>
<path d="M15.75 8.4375L13.6617 4.78125C13.6131 4.69555 13.5425 4.62434 13.4572 4.57491C13.372 4.52549 13.2751 4.49963 13.1766 4.5H4.82344C4.72489 4.49963 4.62802 4.52549 4.54276 4.57491C4.4575 4.62434 4.38693 4.69555 4.33828 4.78125L2.25 8.4375V12.9375H15.75V8.4375Z" stroke="white" stroke-width="1.2" stroke-linecap="round" stroke-linejoin="round"/>
</svg>
