<svg width="126" height="76" viewBox="0 0 126 76" fill="none" xmlns="http://www.w3.org/2000/svg">
<path fill-rule="evenodd" clip-rule="evenodd" d="M102.13 42.509C101.572 41.5975 101.095 40.8096 100.846 40.3918C99.3327 37.8463 94.8078 31.9795 93.0531 26.8347C91.7132 22.9101 91.977 19.3928 95.4414 17.5519C98.5902 15.8788 102.495 17.0651 106.426 19.9861C114.887 26.2729 123.676 40.4441 125.225 45.4109C125.394 45.9532 125.093 46.5286 124.551 46.6974C124.011 46.8657 123.436 46.5648 123.267 46.0225C121.779 41.2565 113.324 27.6687 105.202 21.6331C102.027 19.2745 98.9472 18.0136 96.4038 19.3657C93.893 20.6989 94.0242 23.3259 94.9957 26.171C96.7023 31.1783 101.136 36.8651 102.611 39.3429C103.534 40.8967 107.224 46.7233 107.42 47.2988C107.665 48.0194 107.203 48.3978 107.042 48.5106C106.917 48.5982 106.266 48.9946 105.627 48.3145C96.5103 38.6223 75.8118 30.0599 55.942 29.5786C36.2469 29.1014 17.3176 36.6145 11.5128 59.2134C11.3707 59.7621 10.8106 60.093 10.2626 59.9535C9.71394 59.8114 9.38297 59.2513 9.52501 58.7026C15.6077 35.024 35.3575 27.0262 55.9904 27.5259C73.3797 27.9465 91.361 34.4409 102.13 42.509Z" fill="#265FEB"/>
<path fill-rule="evenodd" clip-rule="evenodd" d="M10.9794 57.8259C12.9272 56.389 14.8209 54.8964 16.8815 53.61C22.3706 50.182 28.8003 47.7827 35.2788 47.3235C35.8459 47.2846 36.3355 47.7113 36.3763 48.2752C36.4152 48.8423 35.9885 49.3319 35.4246 49.3726C29.2758 49.8048 23.1775 52.0991 17.97 55.3518C15.6121 56.8254 13.4734 58.5748 11.2188 60.1933C11.1053 60.2727 10.1471 61.0059 9.90238 61.105C9.33382 61.3392 8.94879 61.0731 8.78643 60.9271C8.64925 60.8068 8.51381 60.63 8.43913 60.3657C8.37899 60.1485 8.36173 59.7095 8.46347 59.1176C8.7835 57.2207 10.1649 52.9033 10.3165 52.1706C12.0572 43.7723 12.2667 35.6669 12.7006 27.1389C12.7315 26.5729 13.2141 26.1359 13.7795 26.1642C14.3448 26.1925 14.7793 26.6759 14.751 27.2412C14.3123 35.8773 14.0886 44.0851 12.3256 52.5852C12.223 53.0892 11.5009 55.8488 10.9794 57.8259Z" fill="#265FEB"/>
</svg>
