<svg width="43" height="43" viewBox="0 0 43 43" fill="none" xmlns="http://www.w3.org/2000/svg">
<g opacity="0.2">
<path d="M29.6494 6.98779L20.2496 21.1045L27.7625 36.1853" stroke="#265FEB" stroke-linecap="round" stroke-linejoin="round"/>
<path d="M5.21735 20.1589L20.2656 21.1057" stroke="#265FEB" stroke-linecap="round" stroke-linejoin="round"/>
<path d="M37.1733 18.7213L32.8197 9.55258C31.8344 7.4751 29.1504 5.6572 26.8608 5.51315L17.4867 4.92338C15.1971 4.77933 12.3064 6.24649 11.0685 8.1841L5.5835 16.7338C4.41925 18.5595 4.22405 21.662 5.1503 23.6192L9.52049 32.7889C10.5058 34.8664 13.1898 36.6843 15.4794 36.8284L24.8534 37.4182C27.143 37.5622 30.0337 36.095 31.2716 34.1574L36.7567 25.6077C37.9219 23.7655 38.1161 20.6795 37.1733 18.7213Z" stroke="#265FEB" stroke-linecap="round" stroke-linejoin="round"/>
</g>
</svg>
