<svg width="125" height="75" viewBox="0 0 125 75" fill="none" xmlns="http://www.w3.org/2000/svg">
<path fill-rule="evenodd" clip-rule="evenodd" d="M23.4021 41.9765C23.9606 41.0651 24.4371 40.2772 24.6867 39.8594C26.1996 37.3138 30.7244 31.447 32.4791 26.3022C33.8191 22.3776 33.5553 18.8603 30.0908 17.0194C26.942 15.3463 23.037 16.5326 19.1058 19.4537C10.645 25.7404 1.85641 39.9116 0.306923 44.8784C0.138058 45.4208 0.438943 45.9961 0.98126 46.165C1.52107 46.3332 2.0964 46.0323 2.26527 45.49C3.7534 40.724 12.2079 27.1363 20.3302 21.1007C23.5053 18.742 26.585 17.4811 29.1284 18.8332C31.6392 20.1664 31.5081 22.7934 30.5366 25.6385C28.83 30.6459 24.3959 36.3326 22.9215 38.8104C21.998 40.3643 18.3086 46.1908 18.1127 46.7664C17.8668 47.4869 18.3295 47.8654 18.4907 47.9781C18.6155 48.0657 19.266 48.4622 19.905 47.782C29.0219 38.0899 49.7205 29.5274 69.5902 29.0462C89.2853 28.5689 108.215 36.082 114.019 58.681C114.161 59.2296 114.722 59.5605 115.27 59.421C115.818 59.279 116.149 58.7188 116.007 58.1702C109.925 34.4916 90.1747 26.4937 69.5418 26.9934C52.1526 27.414 34.1712 33.9084 23.4021 41.9765Z" fill="#265FEB"/>
<path fill-rule="evenodd" clip-rule="evenodd" d="M114.553 57.2929C112.605 55.8561 110.711 54.3634 108.651 53.077C103.162 49.649 96.7319 47.2497 90.2534 46.7905C89.6863 46.7516 89.1967 47.1783 89.1559 47.7422C89.117 48.3093 89.5437 48.7989 90.1077 48.8397C96.2565 49.2718 102.355 51.5661 107.562 54.8189C109.92 56.2924 112.059 58.0419 114.313 59.6603C114.427 59.7397 115.385 60.4729 115.63 60.572C116.198 60.8063 116.583 60.5402 116.746 60.3942C116.883 60.2739 117.018 60.097 117.093 59.8327C117.153 59.6155 117.17 59.1766 117.069 58.5847C116.749 56.6878 115.367 52.3704 115.216 51.6377C113.475 43.2394 113.266 35.1339 112.832 26.6059C112.801 26.0399 112.318 25.6029 111.753 25.6313C111.187 25.6596 110.753 26.1429 110.781 26.7083C111.22 35.3444 111.444 43.5522 113.207 52.0523C113.309 52.5562 114.031 55.3158 114.553 57.2929Z" fill="#265FEB"/>
</svg>
