<svg width="27" height="86" viewBox="0 0 27 86" fill="none" xmlns="http://www.w3.org/2000/svg">
<path d="M25.5118 85.2998C25.6773 85.293 25.806 85.1532 25.7992 84.9877L25.6879 82.29C25.6811 82.1244 25.5414 81.9958 25.3758 82.0026C25.2103 82.0094 25.0816 82.1492 25.0884 82.3147L25.1873 84.7127L22.7893 84.8115C22.6238 84.8184 22.4951 84.9581 22.502 85.1236C22.5088 85.2892 22.6485 85.4178 22.8141 85.411L25.5118 85.2998ZM20.3072 0.269398C19.3799 1.0439 18.4921 1.82206 17.6426 2.60344L18.0488 3.04503C18.891 2.2703 19.7716 1.49843 20.6918 0.729911L20.3072 0.269398ZM12.7749 7.57825C11.1575 9.42793 9.73493 11.2898 8.4919 13.1581L8.99143 13.4905C10.2193 11.6449 11.6258 9.8039 13.2266 7.97321L12.7749 7.57825ZM5.06184 19.2513C4.04139 21.4468 3.24462 23.6416 2.6466 25.8261L3.22531 25.9846C3.81447 23.8324 4.59967 21.6692 5.60594 19.5042L5.06184 19.2513ZM1.38495 32.7288C1.15991 35.0955 1.14334 37.4366 1.30148 39.7392L1.90007 39.6981C1.74404 37.4261 1.76049 35.1179 1.98226 32.7856L1.38495 32.7288ZM2.29994 46.675C2.80096 48.9805 3.45443 51.2301 4.2221 53.4095L4.78802 53.2102C4.02785 51.052 3.3815 48.8265 2.88625 46.5476L2.29994 46.675ZM6.90128 59.8745C7.92876 62.0336 9.04223 64.0967 10.1954 66.0465L10.7118 65.741C9.56687 63.8051 8.46204 61.7579 7.44306 59.6167L6.90128 59.8745ZM14 71.9283C15.4486 73.9892 16.8825 75.8537 18.2175 77.4902L18.6824 77.1109C17.3554 75.4842 15.9303 73.6311 14.4908 71.5832L14 71.9283ZM22.8454 82.7617C23.5987 83.5564 24.2103 84.1702 24.6342 84.5858C24.8461 84.7935 25.0111 84.9518 25.1233 85.0584C25.1794 85.1116 25.2224 85.152 25.2515 85.1791C25.266 85.1927 25.277 85.203 25.2845 85.2099C25.2883 85.2134 25.2911 85.216 25.2931 85.2179C25.294 85.2187 25.2948 85.2194 25.2953 85.2199C25.2956 85.2202 25.2958 85.2204 25.2959 85.2205C25.296 85.2206 25.2961 85.2206 25.2961 85.2207C25.2961 85.2207 25.2962 85.2207 25.2962 85.2207C25.2962 85.2207 25.2962 85.2207 25.4994 85C25.7026 84.7794 25.7026 84.7794 25.7026 84.7794C25.7026 84.7794 25.7026 84.7794 25.7026 84.7794C25.7026 84.7794 25.7026 84.7793 25.7026 84.7793C25.7025 84.7792 25.7023 84.7791 25.7021 84.7789C25.7018 84.7786 25.7011 84.778 25.7003 84.7772C25.6986 84.7757 25.696 84.7733 25.6926 84.77C25.6856 84.7636 25.6751 84.7538 25.6611 84.7408C25.6332 84.7147 25.5914 84.6754 25.5364 84.6232C25.4264 84.5188 25.2637 84.3628 25.0542 84.1573C24.6352 83.7465 24.0287 83.1379 23.2808 82.349L22.8454 82.7617ZM25.5241 85.5995C25.8552 85.5859 26.1126 85.3064 26.0989 84.9753L25.8764 79.5799C25.8628 79.2488 25.5833 78.9915 25.2522 79.0051C24.9212 79.0188 24.6638 79.2983 24.6775 79.6294L24.8752 84.4253L20.0793 84.623C19.7482 84.6367 19.4909 84.9161 19.5045 85.2472C19.5182 85.5783 19.7976 85.8356 20.1287 85.822L25.5241 85.5995ZM20.1149 0.0391406C19.184 0.816627 18.2926 1.59794 17.4395 2.38264L18.2519 3.26583C19.0905 2.49441 19.9675 1.7257 20.8841 0.960168L20.1149 0.0391406ZM12.5491 7.38077C10.9234 9.23995 9.49273 11.1123 8.24213 12.9919L9.2412 13.6567C10.4615 11.8225 11.8599 9.99188 13.4525 8.1707L12.5491 7.38077ZM4.78979 19.1249C3.76225 21.3356 2.9597 23.5462 2.35725 25.7469L3.51466 26.0638C4.0994 23.9278 4.87881 21.7804 5.87799 19.6307L4.78979 19.1249ZM1.0863 32.7004C0.859623 35.0844 0.842998 37.4418 1.00219 39.7597L2.19937 39.6775C2.04439 37.4209 2.06079 35.1291 2.28091 32.814L1.0863 32.7004ZM2.00678 46.7387C2.51069 49.0575 3.16772 51.3191 3.93914 53.5092L5.07098 53.1105C4.31456 50.963 3.67177 48.7495 3.17941 46.4839L2.00678 46.7387ZM6.63038 60.0034C7.66212 62.1715 8.77992 64.2425 9.93713 66.1992L10.97 65.5883C9.82919 63.6594 8.72869 61.6201 7.71395 59.4877L6.63038 60.0034ZM13.7545 72.1008C15.2077 74.1682 16.646 76.0384 17.985 77.6798L18.9149 76.9213C17.5919 75.2995 16.1711 73.4521 14.7363 71.4107L13.7545 72.1008ZM22.6277 82.9681C23.3836 83.7656 23.9979 84.382 24.4241 84.8C24.6372 85.0089 24.8034 85.1683 24.9168 85.2759C24.9735 85.3298 25.017 85.3706 25.0466 85.3983C25.0614 85.4121 25.0727 85.4227 25.0805 85.4299C25.0844 85.4335 25.0874 85.4362 25.0895 85.4382C25.0905 85.4391 25.0913 85.4399 25.0919 85.4404C25.0922 85.4407 25.0924 85.4409 25.0926 85.4411C25.0927 85.4412 25.0928 85.4412 25.0928 85.4413C25.0929 85.4413 25.0929 85.4414 25.0929 85.4414C25.093 85.4414 25.093 85.4414 25.4994 85C25.9058 84.5587 25.9059 84.5587 25.9059 84.5587C25.9059 84.5587 25.9059 84.5587 25.9059 84.5587C25.9059 84.5587 25.9059 84.5587 25.9059 84.5587C25.9058 84.5586 25.9057 84.5586 25.9056 84.5584C25.9052 84.5581 25.9047 84.5576 25.9039 84.5569C25.9024 84.5555 25.8999 84.5532 25.8966 84.5501C25.8899 84.5439 25.8797 84.5344 25.866 84.5216C25.8386 84.496 25.7973 84.4572 25.7429 84.4056C25.634 84.3022 25.4726 84.1474 25.2643 83.9431C24.8476 83.5346 24.2437 82.9287 23.4985 82.1426L22.6277 82.9681Z" fill="#265FEB"/>
</svg>
