<svg width="228" height="580" viewBox="0 0 228 580" fill="none" xmlns="http://www.w3.org/2000/svg">
<circle opacity="0.08" cx="124" cy="577" r="3" fill="white"/>
<path opacity="0.2" d="M171.063 0.712687C171.033 0.531389 170.862 0.40857 170.681 0.438364C170.5 0.468158 170.377 0.639282 170.407 0.82058L171.063 0.712687ZM-144.32 289.391C-143.543 287.463 -142.758 285.563 -141.966 283.689L-142.579 283.43C-143.372 285.307 -144.158 287.211 -144.937 289.142L-144.32 289.391ZM-137.133 272.767C-135.447 269.129 -133.734 265.602 -131.993 262.181L-132.586 261.88C-134.33 265.307 -136.048 268.842 -137.736 272.487L-137.133 272.767ZM-126.333 251.597C-124.366 248.096 -122.368 244.72 -120.342 241.463L-120.907 241.112C-122.938 244.377 -124.941 247.762 -126.913 251.271L-126.333 251.597ZM-113.778 231.465C-111.474 228.141 -109.137 224.957 -106.771 221.906L-107.296 221.499C-109.67 224.559 -112.014 227.752 -114.325 231.086L-113.778 231.465ZM-99.2531 212.773C-96.571 209.705 -93.8551 206.791 -91.1087 204.025L-91.5808 203.557C-94.3373 206.333 -97.0628 209.256 -99.754 212.336L-99.2531 212.773ZM-82.534 195.944C-79.4951 193.267 -76.4242 190.754 -73.3256 188.393L-73.7289 187.864C-76.84 190.234 -79.923 192.758 -82.9738 195.445L-82.534 195.944ZM-63.6026 181.531C-60.2453 179.342 -56.8612 177.314 -53.4554 175.434L-53.7769 174.852C-57.1968 176.739 -60.5948 178.776 -63.966 180.974L-63.6026 181.531ZM-42.8837 170.092C-39.2371 168.412 -35.5717 166.884 -31.8935 165.493L-32.1289 164.871C-35.8211 166.267 -39.5008 167.801 -43.1622 169.488L-42.8837 170.092ZM-20.6448 161.662C-16.8304 160.499 -13.0088 159.466 -9.1864 158.548L-9.3419 157.901C-13.1765 158.822 -17.011 159.858 -20.8388 161.025L-20.6448 161.662ZM2.42803 156.089C6.35136 155.364 10.2685 154.743 14.1724 154.207L14.0819 153.548C10.1688 154.085 6.24151 154.708 2.30725 155.434L2.42803 156.089ZM25.999 152.822C29.9785 152.43 33.9363 152.11 37.8647 151.842L37.8195 151.178C33.8854 151.447 29.9209 151.767 25.9338 152.16L25.999 152.822ZM49.7493 151.167C53.7555 150.979 57.7214 150.826 61.6389 150.687L61.6153 150.022C57.6966 150.161 53.7279 150.314 49.7181 150.502L49.7493 151.167ZM73.5263 150.28C77.5553 150.14 81.5202 149.99 85.4103 149.806L85.3788 149.142C81.4928 149.326 77.5311 149.475 73.5031 149.616L73.5263 150.28ZM97.2965 149.092C101.357 148.783 105.317 148.402 109.162 147.916L109.079 147.256C105.247 147.74 101.298 148.12 97.246 148.429L97.2965 149.092ZM120.941 145.984C124.961 145.148 128.82 144.136 132.5 142.901L132.288 142.27C128.637 143.496 124.804 144.501 120.806 145.332L120.941 145.984ZM143.492 138.21C147.025 136.319 150.326 134.112 153.371 131.531L152.941 131.024C149.935 133.572 146.673 135.752 143.178 137.623L143.492 138.21ZM161.538 122.843C163.821 119.795 165.872 116.395 167.675 112.603L167.074 112.318C165.289 116.072 163.26 119.433 161.006 122.444L161.538 122.843ZM171.899 101.474C172.961 97.8999 173.86 94.0576 174.586 89.9263L173.931 89.8111C173.208 93.9196 172.315 97.7369 171.261 101.284L171.899 101.474ZM176.117 78.1229C176.454 74.2996 176.671 70.2693 176.763 66.0206L176.097 66.0062C176.006 70.2414 175.79 74.257 175.454 78.0644L176.117 78.1229ZM176.711 54.3023C176.603 50.4904 176.407 46.5242 176.122 42.3973L175.459 42.4431C175.743 46.5617 175.938 50.5189 176.046 54.3212L176.711 54.3023ZM175.093 30.4688C174.706 26.6812 174.25 22.7718 173.726 18.7366L173.067 18.8222C173.59 22.8519 174.044 26.7553 174.432 30.5366L175.093 30.4688ZM172.046 6.89541C171.734 4.86389 171.407 2.80313 171.063 0.712687L170.407 0.82058C170.75 2.90875 171.077 4.96717 171.388 6.99629L172.046 6.89541ZM171.391 0.658741C171.332 0.296144 170.99 0.0505063 170.627 0.110094C170.264 0.169682 170.019 0.51193 170.078 0.874527L171.391 0.658741ZM-144.012 289.516C-143.235 287.59 -142.451 285.691 -141.66 283.819L-142.885 283.301C-143.679 285.18 -144.466 287.085 -145.246 289.018L-144.012 289.516ZM-136.831 272.907C-135.147 269.273 -133.435 265.749 -131.696 262.332L-132.882 261.729C-134.629 265.16 -136.348 268.699 -138.038 272.347L-136.831 272.907ZM-126.043 251.76C-124.078 248.264 -122.083 244.892 -120.059 241.639L-121.189 240.936C-123.224 244.206 -125.229 247.595 -127.203 251.108L-126.043 251.76ZM-113.505 231.654C-111.204 228.335 -108.871 225.156 -106.508 222.11L-107.559 221.295C-109.937 224.359 -112.284 227.558 -114.598 230.896L-113.505 231.654ZM-99.0026 212.992C-96.3251 209.929 -93.614 207.021 -90.8726 204.26L-91.8169 203.322C-94.5784 206.103 -97.3087 209.032 -100.005 212.117L-99.0026 212.992ZM-82.3142 196.194C-79.2811 193.522 -76.2164 191.014 -73.124 188.658L-73.9305 187.6C-77.0479 189.975 -80.137 192.503 -83.1937 195.195L-82.3142 196.194ZM-63.4209 181.81C-60.0705 179.625 -56.6934 177.601 -53.2947 175.726L-53.9377 174.56C-57.3645 176.452 -60.7696 178.493 -64.1477 180.695L-63.4209 181.81ZM-42.7445 170.395C-39.1052 168.718 -35.447 167.193 -31.7758 165.804L-32.2465 164.56C-35.9457 165.958 -39.6327 167.496 -43.3014 169.186L-42.7445 170.395ZM-20.5478 161.98C-16.7402 160.819 -12.925 159.788 -9.10865 158.871L-9.41965 157.577C-13.2603 158.5 -17.1012 159.538 -20.9358 160.707L-20.5478 161.98ZM2.48842 156.416C6.40629 155.693 10.3183 155.072 14.2176 154.537L14.0366 153.218C10.1189 153.756 6.18658 154.38 2.24685 155.107L2.48842 156.416ZM26.0316 153.153C30.0073 152.762 33.9617 152.442 37.8874 152.174L37.7968 150.846C33.86 151.115 29.8921 151.436 25.9012 151.829L26.0316 153.153ZM49.7649 151.499C53.7693 151.311 57.7339 151.158 61.6507 151.019L61.6035 149.69C57.6842 149.829 53.714 149.982 49.7025 150.17L49.7649 151.499ZM73.5379 150.613C77.5674 150.472 81.5339 150.323 85.426 150.139L85.3631 148.809C81.4792 148.993 77.519 149.143 73.4915 149.283L73.5379 150.613ZM97.3217 149.424C101.387 149.115 105.352 148.733 109.204 148.246L109.037 146.926C105.212 147.41 101.269 147.789 97.2208 148.097L97.3217 149.424ZM121.009 146.309C125.039 145.471 128.912 144.456 132.606 143.216L132.183 141.955C128.546 143.175 124.726 144.178 120.738 145.006L121.009 146.309ZM143.649 138.503C147.201 136.602 150.522 134.382 153.586 131.785L152.726 130.77C149.739 133.301 146.497 135.469 143.021 137.33L143.649 138.503ZM161.805 123.042C164.101 119.975 166.163 116.557 167.975 112.746L166.773 112.175C164.997 115.91 162.98 119.252 160.74 122.245L161.805 123.042ZM172.217 101.569C173.284 97.9814 174.185 94.1266 174.914 89.9839L173.603 89.7535C172.883 93.8506 171.993 97.6554 170.942 101.19L172.217 101.569ZM176.448 78.1521C176.786 74.3209 177.003 70.2832 177.095 66.0277L175.765 65.999C175.674 70.2275 175.458 74.2357 175.123 78.0352L176.448 78.1521ZM177.044 54.2929C176.935 50.4762 176.74 46.5055 176.454 42.3743L175.127 42.466C175.411 46.5804 175.606 50.5332 175.713 54.3307L177.044 54.2929ZM175.424 30.4349C175.036 26.6442 174.581 22.7318 174.056 18.6937L172.737 18.8651C173.26 22.8919 173.714 26.7924 174.101 30.5705L175.424 30.4349ZM172.375 6.84497C172.063 4.81225 171.735 2.75032 171.391 0.658741L170.078 0.874527C170.421 2.96156 170.748 5.01881 171.059 7.04673L172.375 6.84497Z" fill="white"/>
<g opacity="0.3">
<path d="M51.5254 371.134L59.6157 382.622L73.5148 381.334" stroke="white" stroke-width="0.703284" stroke-linecap="round" stroke-linejoin="round"/>
<path d="M54.384 393.95L59.6211 382.609" stroke="white" stroke-width="0.703284" stroke-linecap="round" stroke-linejoin="round"/>
<path d="M62.8424 368.834L54.4562 369.452C52.5564 369.591 50.3484 371.12 49.5516 372.846L46.2893 379.91C45.4924 381.636 45.7603 384.308 46.8863 385.845L51.8485 392.642C52.9101 394.088 55.2483 395.167 57.0376 395.038L65.4295 394.408C67.3293 394.268 69.5373 392.739 70.3341 391.014L73.5964 383.949C74.3933 382.224 74.1254 379.552 72.9993 378.015L68.0372 371.218C66.9631 369.766 64.6373 368.692 62.8424 368.834Z" stroke="white" stroke-width="0.703284" stroke-linecap="round" stroke-linejoin="round"/>
</g>
</svg>
