<svg width="194" height="259" viewBox="0 0 194 259" fill="none" xmlns="http://www.w3.org/2000/svg">
<circle opacity="0.08" cx="189.5" cy="254.5" r="4.5" fill="white"/>
<circle opacity="0.08" cx="3" cy="3" r="3" fill="white"/>
<g opacity="0.3">
<path d="M158.596 45.2491C161.355 46.1421 164.315 44.6298 165.208 41.8712C166.101 39.1127 164.588 36.1525 161.83 35.2595C159.071 34.3665 156.111 35.8788 155.218 38.6374C154.325 41.3959 155.837 44.3561 158.596 45.2491Z" stroke="white" stroke-linecap="round" stroke-linejoin="round"/>
<path d="M172.699 44.2962C169.061 55.5345 153.745 60.2331 153.745 60.2331C153.745 60.2331 144.087 47.4499 147.725 36.2116C148.797 32.8999 151.141 30.1496 154.241 28.5659C157.341 26.9822 160.943 26.6948 164.255 27.7669C167.566 28.839 170.317 31.1827 171.9 34.2826C173.484 37.3824 173.771 40.9844 172.699 44.2962V44.2962Z" stroke="white" stroke-linecap="round" stroke-linejoin="round"/>
</g>
</svg>
