<svg width="183" height="54" viewBox="0 0 183 54" fill="none" xmlns="http://www.w3.org/2000/svg">
<rect x="0.675" y="0.675" width="180.9" height="52.65" rx="6.075" fill="#ffffff"/>
<path d="M91.9832 29.3641C88.808 29.3641 86.22 31.7792 86.22 35.1056C86.22 38.4118 88.808 40.8472 91.9832 40.8472C95.1597 40.8472 97.7476 38.4118 97.7476 35.1056C97.7463 31.7792 95.1584 29.3641 91.9832 29.3641ZM91.9832 38.5873C90.243 38.5873 88.7432 37.1522 88.7432 35.107C88.7432 33.0401 90.2444 31.6267 91.9832 31.6267C93.7233 31.6267 95.2232 33.0401 95.2232 35.107C95.2232 37.1509 93.7233 38.5873 91.9832 38.5873ZM79.4092 29.3641C76.234 29.3641 73.6461 31.7792 73.6461 35.1056C73.6461 38.4118 76.234 40.8472 79.4092 40.8472C82.5858 40.8472 85.1738 38.4118 85.1738 35.1056C85.1738 31.7792 82.5858 29.3641 79.4092 29.3641ZM79.4092 38.5873C77.6691 38.5873 76.1692 37.1522 76.1692 35.107C76.1692 33.0401 77.6704 31.6267 79.4092 31.6267C81.1494 31.6267 82.6493 33.0401 82.6493 35.107C82.6506 37.1509 81.1494 38.5873 79.4092 38.5873ZM64.4539 31.1272V33.5626H70.2833C70.1091 34.9328 69.6528 35.9332 68.9562 36.6284C68.1084 37.4762 66.7813 38.4118 64.4539 38.4118C60.8656 38.4118 58.0603 35.5187 58.0603 31.9304C58.0603 28.3421 60.8656 25.4491 64.4539 25.4491C66.3898 25.4491 67.8033 26.2105 68.8469 27.1892L70.5654 25.4707C69.1074 24.0788 67.1728 23.0137 64.4539 23.0137C59.5386 23.0137 55.4062 27.0151 55.4062 31.9304C55.4062 36.8458 59.5386 40.8472 64.4539 40.8472C67.1067 40.8472 69.1088 39.9764 70.6734 38.3456C72.2826 36.7364 72.7835 34.4738 72.7835 32.6473C72.7835 32.083 72.7403 31.5605 72.6525 31.1258H64.4539V31.1272ZM125.62 33.0185C125.142 31.736 123.684 29.3641 120.704 29.3641C117.747 29.3641 115.288 31.6915 115.288 35.1056C115.288 38.324 117.725 40.8472 120.987 40.8472C123.618 40.8472 125.141 39.238 125.772 38.3024L123.815 36.997C123.163 37.9541 122.27 38.5846 120.987 38.5846C119.704 38.5846 118.79 37.9973 118.203 36.8444L125.88 33.6692L125.62 33.0185ZM117.79 34.9328C117.725 32.7134 119.508 31.5835 120.792 31.5835C121.792 31.5835 122.64 32.0843 122.924 32.8012L117.79 34.9328ZM111.549 40.5002H114.071V23.6239H111.549V40.5002ZM107.415 30.6479H107.329C106.763 29.9729 105.675 29.3641 104.306 29.3641C101.435 29.3641 98.8034 31.8872 98.8034 35.1286C98.8034 38.347 101.435 40.8485 104.306 40.8485C105.676 40.8485 106.763 40.2397 107.329 39.5444H107.415V40.3706C107.415 42.5671 106.24 43.7416 104.349 43.7416C102.805 43.7416 101.848 42.6332 101.456 41.6977L99.2597 42.6116C99.8901 44.1331 101.564 46.0042 104.349 46.0042C107.307 46.0042 109.809 44.264 109.809 40.0223V29.7137H107.416V30.6479H107.415ZM104.523 38.5873C102.783 38.5873 101.326 37.1293 101.326 35.1286C101.326 33.1049 102.783 31.6267 104.523 31.6267C106.241 31.6267 107.589 33.1049 107.589 35.1286C107.589 37.1293 106.241 38.5873 104.523 38.5873ZM137.438 23.6239H131.402V40.5002H133.92V34.1066H137.436C140.228 34.1066 142.974 32.0857 142.974 28.8659C142.974 25.6462 140.229 23.6239 137.438 23.6239ZM137.502 31.7576H133.92V25.9729H137.502C139.386 25.9729 140.455 27.5321 140.455 28.8659C140.455 30.1727 139.386 31.7576 137.502 31.7576ZM153.071 29.3344C151.247 29.3344 149.358 30.1376 148.577 31.9183L150.812 32.8511C151.29 31.9183 152.181 31.6132 153.114 31.6132C154.417 31.6132 155.741 32.3948 155.763 33.784V33.9581C155.306 33.6976 154.329 33.3074 153.135 33.3074C150.726 33.3074 148.271 34.6318 148.271 37.1063C148.271 39.3649 150.248 40.8188 152.462 40.8188C154.155 40.8188 155.089 40.0588 155.675 39.1678H155.761V40.4705H158.194V34C158.195 31.0057 155.957 29.3344 153.071 29.3344ZM152.766 38.5832C151.942 38.5832 150.791 38.1701 150.791 37.1495C150.791 35.8468 152.224 35.3473 153.462 35.3473C154.568 35.3473 155.09 35.5862 155.763 35.9116C155.567 37.4762 154.221 38.5832 152.766 38.5832ZM167.053 29.7029L164.165 37.0199H164.079L161.082 29.7029H158.368L162.862 39.9292L160.3 45.6181H162.927L169.854 29.7029H167.053ZM144.364 40.5002H146.882V23.6239H144.364V40.5002Z" fill="#000000"/>
<path d="M64.0133 13.8281C64.0133 14.9594 63.6785 15.8598 63.0076 16.5321C62.2462 17.3313 61.2526 17.7309 60.0322 17.7309C58.8631 17.7309 57.8681 17.3259 57.0514 16.5159C56.2333 15.7046 55.8242 14.7002 55.8242 13.5014C55.8242 12.3012 56.2333 11.2968 57.0514 10.4868C57.8681 9.67546 58.8631 9.27046 60.0322 9.27046C60.6127 9.27046 61.1675 9.38386 61.694 9.60931C62.2219 9.83611 62.6444 10.1372 62.9603 10.5138L62.2489 11.2266C61.7129 10.5854 60.9745 10.2654 60.0308 10.2654C59.1776 10.2654 58.4405 10.5651 57.8182 11.1645C57.1958 11.7639 56.8853 12.5429 56.8853 13.5C56.8853 14.4572 57.1958 15.2361 57.8182 15.8355C58.4405 16.4349 59.1776 16.7346 60.0308 16.7346C60.9353 16.7346 61.69 16.4336 62.2934 15.8301C62.6849 15.4373 62.9117 14.8905 62.9725 14.1899H60.0308V13.2165H63.9553C63.9958 13.4285 64.0133 13.6323 64.0133 13.8281Z" fill="#000000"/>
<path d="M70.2369 10.445H66.5487V13.0127H69.8751V13.9861H66.5487V16.5538H70.2369V17.5501H65.5079V9.45009H70.2369V10.445Z" fill="#000000"/>
<path d="M74.6256 17.5501H73.5848V10.445H71.3222V9.45009H76.8882V10.445H74.6256V17.5501Z" fill="#000000"/>
<path d="M80.9152 17.5501V9.45009H81.9561V17.5501H80.9152Z" fill="#000000"/>
<path d="M86.572 17.5501H85.5311V10.445H83.2685V9.45009H88.8346V10.445H86.572V17.5501Z" fill="#000000"/>
<path d="M99.371 16.5038C98.5745 17.3219 97.5849 17.731 96.401 17.731C95.217 17.731 94.2275 17.3219 93.4324 16.5038C92.6359 15.6857 92.2389 14.684 92.2389 13.5001C92.2389 12.3161 92.6359 11.3144 93.4324 10.4963C94.2275 9.67822 95.217 9.26782 96.401 9.26782C97.5782 9.26782 98.5664 9.67957 99.3656 10.5017C100.165 11.3239 100.564 12.3229 100.564 13.5001C100.564 14.684 100.166 15.6857 99.371 16.5038ZM94.2005 15.8248C94.7999 16.4323 95.5329 16.7347 96.401 16.7347C97.269 16.7347 98.0035 16.4309 98.6015 15.8248C99.2009 15.2173 99.502 14.4424 99.502 13.5001C99.502 12.5578 99.2009 11.7829 98.6015 11.1754C98.0035 10.5679 97.269 10.2655 96.401 10.2655C95.5329 10.2655 94.7999 10.5692 94.2005 11.1754C93.6025 11.7829 93.3014 12.5578 93.3014 13.5001C93.3014 14.4424 93.6025 15.2173 94.2005 15.8248Z" fill="#000000"/>
<path d="M102.025 17.5501V9.45009H103.291L107.228 15.7505H107.273L107.228 14.1899V9.45009H108.269V17.5501H107.182L103.063 10.9432H103.019L103.063 12.5038V17.5501H102.025Z" fill="#000000"/>
<path d="M64.0133 13.8281C64.0133 14.9594 63.6785 15.8598 63.0076 16.5321C62.2462 17.3313 61.2526 17.7309 60.0322 17.7309C58.8631 17.7309 57.8681 17.3259 57.0514 16.5159C56.2333 15.7046 55.8242 14.7002 55.8242 13.5014C55.8242 12.3012 56.2333 11.2968 57.0514 10.4868C57.8681 9.67546 58.8631 9.27046 60.0322 9.27046C60.6127 9.27046 61.1675 9.38386 61.694 9.60931C62.2219 9.83611 62.6444 10.1372 62.9603 10.5138L62.2489 11.2266C61.7129 10.5854 60.9745 10.2654 60.0308 10.2654C59.1776 10.2654 58.4405 10.5651 57.8182 11.1645C57.1958 11.7639 56.8853 12.5429 56.8853 13.5C56.8853 14.4572 57.1958 15.2361 57.8182 15.8355C58.4405 16.4349 59.1776 16.7346 60.0308 16.7346C60.9353 16.7346 61.69 16.4336 62.2934 15.8301C62.6849 15.4373 62.9117 14.8905 62.9725 14.1899H60.0308V13.2165H63.9553C63.9958 13.4285 64.0133 13.6323 64.0133 13.8281Z" stroke="#000000" stroke-width="0.27" stroke-miterlimit="10"/>
<path d="M70.2369 10.445H66.5487V13.0127H69.8751V13.9861H66.5487V16.5538H70.2369V17.5501H65.5079V9.45009H70.2369V10.445Z" stroke="#000000" stroke-width="0.27" stroke-miterlimit="10"/>
<path d="M74.6256 17.5501H73.5848V10.445H71.3222V9.45009H76.8882V10.445H74.6256V17.5501Z" stroke="#000000" stroke-width="0.27" stroke-miterlimit="10"/>
<path d="M80.9152 17.5501V9.45009H81.9561V17.5501H80.9152Z" stroke="#000000" stroke-width="0.27" stroke-miterlimit="10"/>
<path d="M86.572 17.5501H85.5311V10.445H83.2685V9.45009H88.8346V10.445H86.572V17.5501Z" stroke="#000000" stroke-width="0.27" stroke-miterlimit="10"/>
<path d="M99.371 16.5038C98.5745 17.3219 97.5849 17.731 96.401 17.731C95.217 17.731 94.2275 17.3219 93.4324 16.5038C92.6359 15.6857 92.2389 14.684 92.2389 13.5001C92.2389 12.3161 92.6359 11.3144 93.4324 10.4963C94.2275 9.67822 95.217 9.26782 96.401 9.26782C97.5782 9.26782 98.5664 9.67957 99.3656 10.5017C100.165 11.3239 100.564 12.3229 100.564 13.5001C100.564 14.684 100.166 15.6857 99.371 16.5038ZM94.2005 15.8248C94.7999 16.4323 95.5329 16.7347 96.401 16.7347C97.269 16.7347 98.0035 16.4309 98.6015 15.8248C99.2009 15.2173 99.502 14.4424 99.502 13.5001C99.502 12.5578 99.2009 11.7829 98.6015 11.1754C98.0035 10.5679 97.269 10.2655 96.401 10.2655C95.5329 10.2655 94.7999 10.5692 94.2005 11.1754C93.6025 11.7829 93.3014 12.5578 93.3014 13.5001C93.3014 14.4424 93.6025 15.2173 94.2005 15.8248Z" stroke="#000000" stroke-width="0.27" stroke-miterlimit="10"/>
<path d="M102.025 17.5501V9.45009H103.291L107.228 15.7505H107.273L107.228 14.1899V9.45009H108.269V17.5501H107.182L103.063 10.9432H103.019L103.063 12.5038V17.5501H102.025Z" stroke="#000000" stroke-width="0.27" stroke-miterlimit="10"/>
<path d="M13.4609 13.522C13.4609 13.4639 13.4623 13.4059 13.465 13.3482L27.1196 26.9999L13.465 40.6519C13.4623 40.5943 13.4609 40.5364 13.4609 40.4783V13.522Z" fill="#000000"/>
<path d="M19.3513 10.1935L34.9065 19.2145L28.0743 26.0454L13.9804 11.9545L13.8624 11.8365C14.5009 10.5552 15.8317 9.63867 17.3448 9.63867C18.0784 9.63867 18.7639 9.84171 19.3513 10.1935Z" fill="#000000"/>
<path d="M42.4838 30.454L36.1438 34.1132L29.029 26.9999L36.1149 19.9153L42.4933 23.6144L42.5071 23.6238C43.713 24.2836 44.5288 25.5613 44.5288 27.0315C44.5288 28.5123 43.7019 29.7964 42.4838 30.454Z" fill="#000000"/>
<path d="M17.3448 44.3616C15.832 44.3616 14.501 43.445 13.8624 42.1636L13.9804 42.0457L28.0743 27.9544L34.9333 34.8119L19.3604 43.8L19.3145 43.8268C18.7365 44.1675 18.0626 44.3616 17.3448 44.3616Z" fill="#000000"/>
<rect x="0.675" y="0.675" width="180.9" height="52.65" rx="6.075" stroke="#000000" stroke-width="1.35"/>
</svg>
