<svg width="26" height="26" viewBox="0 0 26 26" fill="none" xmlns="http://www.w3.org/2000/svg">
<path d="M22.3438 17.875V21.125C22.3438 21.3405 22.2581 21.5472 22.1058 21.6995C21.9534 21.8519 21.7467 21.9375 21.5312 21.9375H19.0938C18.8783 21.9375 18.6716 21.8519 18.5192 21.6995C18.3669 21.5472 18.2812 21.3405 18.2812 21.125V17.875" stroke="#265FEB" stroke-width="2" stroke-linecap="round" stroke-linejoin="round"/>
<path d="M7.71875 17.875V21.125C7.71875 21.3405 7.63315 21.5472 7.48077 21.6995C7.3284 21.8519 7.12174 21.9375 6.90625 21.9375H4.46875C4.25326 21.9375 4.0466 21.8519 3.89423 21.6995C3.74185 21.5472 3.65625 21.3405 3.65625 21.125V17.875" stroke="#265FEB" stroke-width="2" stroke-linecap="round" stroke-linejoin="round"/>
<path d="M1.625 9.75H24.375" stroke="#265FEB" stroke-width="2" stroke-linecap="round" stroke-linejoin="round"/>
<path d="M14.625 13V17.875" stroke="#265FEB" stroke-width="2" stroke-linecap="round" stroke-linejoin="round"/>
<path d="M11.375 13V17.875" stroke="#265FEB" stroke-width="2" stroke-linecap="round" stroke-linejoin="round"/>
<path d="M22.3438 17.875H3.65625V9.75L4.36719 4.76328C4.3941 4.56942 4.49008 4.3918 4.63748 4.26305C4.78489 4.1343 4.97382 4.06309 5.16953 4.0625H20.8305C21.0262 4.06309 21.2151 4.1343 21.3625 4.26305C21.5099 4.3918 21.6059 4.56942 21.6328 4.76328L22.3438 9.75V17.875Z" stroke="#265FEB" stroke-width="2" stroke-linecap="round" stroke-linejoin="round"/>
<path d="M7.3125 14.625C7.9856 14.625 8.53125 14.0793 8.53125 13.4062C8.53125 12.7332 7.9856 12.1875 7.3125 12.1875C6.6394 12.1875 6.09375 12.7332 6.09375 13.4062C6.09375 14.0793 6.6394 14.625 7.3125 14.625Z" fill="#265FEB"/>
<path d="M18.6875 14.625C19.3606 14.625 19.9062 14.0793 19.9062 13.4062C19.9062 12.7332 19.3606 12.1875 18.6875 12.1875C18.0144 12.1875 17.4688 12.7332 17.4688 13.4062C17.4688 14.0793 18.0144 14.625 18.6875 14.625Z" fill="#265FEB"/>
</svg>
