<svg width="29" height="29" viewBox="0 0 29 29" fill="none" xmlns="http://www.w3.org/2000/svg">
<path d="M14.5007 2.41602C9.42565 2.41602 4.83398 6.30685 4.83398 12.3243C4.83398 16.1668 7.7944 20.686 13.7032 25.8939C14.1623 26.2927 14.8511 26.2927 15.3102 25.8939C21.2069 20.686 24.1673 16.1668 24.1673 12.3243C24.1673 6.30685 19.5757 2.41602 14.5007 2.41602ZM14.5007 14.4993C13.1715 14.4993 12.084 13.4118 12.084 12.0827C12.084 10.7535 13.1715 9.66602 14.5007 9.66602C15.8298 9.66602 16.9173 10.7535 16.9173 12.0827C16.9173 13.4118 15.8298 14.4993 14.5007 14.4993Z" fill="#265FEB"/>
</svg>
