<svg width="32" height="32" viewBox="0 0 32 32" fill="none" xmlns="http://www.w3.org/2000/svg">
<path d="M13 10V25.4625C13.0015 25.6287 12.961 25.7926 12.8824 25.939C12.8037 26.0854 12.6894 26.2095 12.55 26.3L11.175 27.2125C11.0418 27.3014 10.8891 27.3571 10.7299 27.3747C10.5708 27.3924 10.4097 27.3716 10.2602 27.314C10.1107 27.2564 9.9773 27.1638 9.8711 27.0439C9.76491 26.924 9.68907 26.7803 9.64996 26.625L7.99996 20" stroke="#265FEB" stroke-width="1.6" stroke-linecap="round" stroke-linejoin="round"/>
<path d="M8 20C6.67392 20 5.40215 19.4733 4.46447 18.5356C3.52678 17.5979 3 16.3261 3 15C3 13.674 3.52678 12.4022 4.46447 11.4645C5.40215 10.5268 6.67392 10 8 10H13C13 10 19.8125 10 26.3625 4.51253C26.5082 4.39198 26.6851 4.3152 26.8726 4.29111C27.0602 4.26702 27.2507 4.2966 27.4222 4.37642C27.5936 4.45625 27.7389 4.58304 27.8411 4.74209C27.9434 4.90115 27.9985 5.08594 28 5.27504V24.725C27.9985 24.9141 27.9434 25.0989 27.8411 25.258C27.7389 25.417 27.5936 25.5438 27.4222 25.6236C27.2507 25.7035 27.0602 25.7331 26.8726 25.709C26.6851 25.6849 26.5082 25.6081 26.3625 25.4875C19.8125 20 13 20 13 20H8Z" stroke="#265FEB" stroke-width="1.6" stroke-linecap="round" stroke-linejoin="round"/>
</svg>
