<svg width="17" height="16" viewBox="0 0 17 16" fill="none" xmlns="http://www.w3.org/2000/svg">
<path d="M14.5 11.0811V4.91858C14.4995 4.82957 14.4756 4.74225 14.4306 4.66544C14.3856 4.58863 14.3212 4.52504 14.2437 4.48108L8.74375 1.38733C8.66964 1.34455 8.58557 1.32202 8.5 1.32202C8.41443 1.32202 8.33036 1.34455 8.25625 1.38733L2.75625 4.48108C2.67884 4.52504 2.6144 4.58863 2.56941 4.66544C2.52442 4.74225 2.50048 4.82957 2.5 4.91858V11.0811C2.50048 11.1701 2.52442 11.2574 2.56941 11.3342C2.6144 11.411 2.67884 11.4746 2.75625 11.5186L8.25625 14.6123C8.33036 14.6551 8.41443 14.6776 8.5 14.6776C8.58557 14.6776 8.66964 14.6551 8.74375 14.6123L14.2437 11.5186C14.3212 11.4746 14.3856 11.411 14.4306 11.3342C14.4756 11.2574 14.4995 11.1701 14.5 11.0811V11.0811Z" stroke="#FF9900" stroke-width="1.2" stroke-linecap="round" stroke-linejoin="round"/>
<path d="M11.5625 9.53125V6.28125L5.5 2.9375" stroke="#FF9900" stroke-width="1.2" stroke-linecap="round" stroke-linejoin="round"/>
<path d="M14.4318 4.6626L8.55684 8.0001L2.56934 4.6626" stroke="#FF9900" stroke-width="1.2" stroke-linecap="round" stroke-linejoin="round"/>
<path d="M8.55625 8L8.5 14.675" stroke="#FF9900" stroke-width="1.2" stroke-linecap="round" stroke-linejoin="round"/>
</svg>
