<svg width="22" height="22" viewBox="0 0 22 22" fill="none" xmlns="http://www.w3.org/2000/svg">
<path d="M7.94922 10.7255C8.65667 12.1864 9.83802 13.3647 11.3008 14.0684C11.4087 14.1195 11.528 14.1416 11.6471 14.1326C11.7661 14.1235 11.8807 14.0837 11.9797 14.0169L14.1281 12.5817C14.223 12.5173 14.3327 12.478 14.4469 12.4675C14.5612 12.457 14.6762 12.4756 14.7812 12.5215L18.8031 14.2489C18.9406 14.3061 19.0554 14.4069 19.13 14.5358C19.2045 14.6647 19.2346 14.8145 19.2156 14.9622C19.0882 15.9571 18.6025 16.8715 17.8496 17.5343C17.0967 18.197 16.1281 18.5627 15.125 18.563C12.0253 18.563 9.05252 17.3316 6.86069 15.1398C4.66886 12.9479 3.4375 9.97517 3.4375 6.87546C3.43773 5.87239 3.80343 4.90378 4.46619 4.15085C5.12895 3.39793 6.04335 2.9123 7.03828 2.78483C7.18596 2.76586 7.33577 2.79596 7.46466 2.8705C7.59354 2.94504 7.69435 3.05987 7.75156 3.19733L9.47891 7.2278C9.52383 7.33122 9.54262 7.44411 9.53363 7.55651C9.52463 7.6689 9.48813 7.77736 9.42734 7.87233L7.99219 10.0551C7.92829 10.1539 7.89079 10.2673 7.88327 10.3847C7.87575 10.5021 7.89845 10.6194 7.94922 10.7255V10.7255Z" stroke="#265FEB" stroke-linecap="round" stroke-linejoin="round"/>
</svg>
