<svg width="28" height="22" viewBox="0 0 28 22" fill="none" xmlns="http://www.w3.org/2000/svg">
<path fill-rule="evenodd" clip-rule="evenodd" d="M0.587745 8.85998C2.07574 3.72998 5.74575 -1.79682e-05 9.31474 -1.79682e-05C9.60025 -0.00184986 9.88536 0.0215747 10.1667 0.069982C10.3223 0.0983918 10.4598 0.188576 10.5477 0.319982C10.6336 0.449711 10.6581 0.61059 10.6147 0.759982L9.87974 3.28998C9.80364 3.53802 9.56888 3.70277 9.30974 3.68998H9.25175C7.92875 3.68998 5.50975 5.59998 4.27674 9.85998C4.22874 10.03 4.18274 10.2 4.13774 10.38C5.55176 9.71198 7.15677 9.56671 8.66774 9.96998C10.2638 10.3697 11.6311 11.3963 12.4604 12.8173C13.2897 14.2383 13.5108 15.9338 13.0737 17.52C12.2517 20.2013 9.76517 22.0236 6.96074 22C6.38182 21.9984 5.80559 21.9211 5.24675 21.77C2.90331 21.0474 1.11391 19.1436 0.537745 16.76C-0.194571 14.1751 -0.177231 11.4354 0.587745 8.85998ZM24.0227 -1.79682e-05C24.3083 -0.00189175 24.5934 0.0215332 24.8747 0.069982C25.0306 0.0983568 25.1684 0.188518 25.2567 0.319982C25.3417 0.450063 25.3658 0.610698 25.3227 0.759982L24.5877 3.28998C24.5126 3.53869 24.2772 3.70386 24.0177 3.68998H23.9607C22.6367 3.68998 20.2187 5.59998 18.9857 9.85998C18.9367 10.03 18.8857 10.2 18.8457 10.38C20.2598 9.71198 21.8648 9.56671 23.3757 9.96998C24.9718 10.3697 26.3391 11.3963 27.1684 12.8173C27.9977 14.2383 28.2188 15.9338 27.7817 17.52C26.96 20.2015 24.4733 22.0239 21.6687 22C21.0898 21.9984 20.5136 21.9211 19.9547 21.77C17.6113 21.0474 15.8219 19.1436 15.2457 16.76C14.5134 14.1751 14.5308 11.4354 15.2957 8.85998C16.7837 3.72998 20.4547 -1.79682e-05 24.0227 -1.79682e-05Z" fill="#265FEB"/>
</svg>
