<svg width="14" height="14" viewBox="0 0 14 14" fill="none" xmlns="http://www.w3.org/2000/svg">
<path d="M2.98047 11.0195C2.47734 10.5164 2.81094 9.46094 2.55391 8.84297C2.29688 8.225 1.3125 7.68359 1.3125 7C1.3125 6.31641 2.28594 5.79688 2.55391 5.15703C2.82188 4.51719 2.47734 3.48359 2.98047 2.98047C3.48359 2.47734 4.53906 2.81094 5.15703 2.55391C5.775 2.29688 6.31641 1.3125 7 1.3125C7.68359 1.3125 8.20312 2.28594 8.84297 2.55391C9.48281 2.82188 10.5164 2.47734 11.0195 2.98047C11.5227 3.48359 11.1891 4.53906 11.4461 5.15703C11.7031 5.775 12.6875 6.31641 12.6875 7C12.6875 7.68359 11.7141 8.20312 11.4461 8.84297C11.1781 9.48281 11.5227 10.5164 11.0195 11.0195C10.5164 11.5227 9.46094 11.1891 8.84297 11.4461C8.225 11.7031 7.68359 12.6875 7 12.6875C6.31641 12.6875 5.79688 11.7141 5.15703 11.4461C4.51719 11.1781 3.48359 11.5227 2.98047 11.0195Z" fill="#265FEB"/>
<path d="M9.40625 5.6875L6.19609 8.75L4.59375 7.21875" stroke="white" stroke-width="0.875" stroke-linecap="round" stroke-linejoin="round"/>
</svg>
